G04*
G04 #@! TF.GenerationSoftware,Altium Limited,Altium Designer,18.1.6 (161)*
G04*
G04 Layer_Color=255*
%FSLAX25Y25*%
%MOIN*%
G70*
G01*
G75*
%ADD16R,0.04724X0.04724*%
%ADD17R,0.03347X0.03347*%
%ADD18R,0.03347X0.03347*%
%ADD32C,0.08661*%
%ADD33R,0.05543X0.05543*%
%ADD34C,0.05543*%
%ADD35C,0.05906*%
%ADD36C,0.07874*%
G04:AMPARAMS|DCode=37|XSize=78.74mil|YSize=78.74mil|CornerRadius=19.68mil|HoleSize=0mil|Usage=FLASHONLY|Rotation=0.000|XOffset=0mil|YOffset=0mil|HoleType=Round|Shape=RoundedRectangle|*
%AMROUNDEDRECTD37*
21,1,0.07874,0.03937,0,0,0.0*
21,1,0.03937,0.07874,0,0,0.0*
1,1,0.03937,0.01968,-0.01968*
1,1,0.03937,-0.01968,-0.01968*
1,1,0.03937,-0.01968,0.01968*
1,1,0.03937,0.01968,0.01968*
%
%ADD37ROUNDEDRECTD37*%
%ADD38C,0.06000*%
%ADD39R,0.05906X0.05906*%
%ADD40R,0.05906X0.05906*%
D16*
X60000Y-45602D02*
D03*
X63937Y-58398D02*
D03*
X56063D02*
D03*
X16000Y-6602D02*
D03*
X19937Y-19398D02*
D03*
X12063D02*
D03*
D17*
X154000Y-81949D02*
D03*
Y-88051D02*
D03*
X161000Y-81898D02*
D03*
Y-88000D02*
D03*
X168000Y-81949D02*
D03*
Y-88051D02*
D03*
X175000Y-88000D02*
D03*
Y-81898D02*
D03*
X182000Y-88000D02*
D03*
Y-81898D02*
D03*
X22000Y-123949D02*
D03*
Y-130051D02*
D03*
X32800Y-130003D02*
D03*
Y-123900D02*
D03*
X43800D02*
D03*
Y-130003D02*
D03*
X4700Y-89400D02*
D03*
Y-95502D02*
D03*
X11000Y-123949D02*
D03*
Y-130051D02*
D03*
X4500Y-111749D02*
D03*
Y-117851D02*
D03*
X50000Y-20051D02*
D03*
Y-13949D02*
D03*
X34500Y-19949D02*
D03*
Y-13847D02*
D03*
X27000Y-20000D02*
D03*
Y-13898D02*
D03*
X42500Y-13847D02*
D03*
Y-19949D02*
D03*
X58000Y-20051D02*
D03*
Y-13949D02*
D03*
D18*
X194051Y-45602D02*
D03*
X187949D02*
D03*
Y-38000D02*
D03*
X194051D02*
D03*
X187949Y-16000D02*
D03*
X194051D02*
D03*
Y-30000D02*
D03*
X187949D02*
D03*
X194051Y-23000D02*
D03*
X187949D02*
D03*
Y-53902D02*
D03*
X194051D02*
D03*
X187949Y-61000D02*
D03*
X194051D02*
D03*
X132949Y-15600D02*
D03*
X139051D02*
D03*
X139000Y-24000D02*
D03*
X132898D02*
D03*
X139000Y-33000D02*
D03*
X132898D02*
D03*
Y-41000D02*
D03*
X139000D02*
D03*
X132898Y-49000D02*
D03*
X139000D02*
D03*
X128051Y-127500D02*
D03*
X121949D02*
D03*
D32*
X165565Y-71400D02*
D03*
X185250D02*
D03*
X204935D02*
D03*
X125935Y-106400D02*
D03*
X106250D02*
D03*
X86565D02*
D03*
X7565Y-71400D02*
D03*
X27250D02*
D03*
X46935D02*
D03*
D33*
X58000Y-99000D02*
D03*
X68000D02*
D03*
X78000D02*
D03*
X55898Y-130000D02*
D03*
X66000D02*
D03*
X76000D02*
D03*
D34*
X58000Y-79000D02*
D03*
X68000D02*
D03*
X78000D02*
D03*
X55898Y-110000D02*
D03*
X66000D02*
D03*
X76000D02*
D03*
D35*
X111250Y-127500D02*
D03*
X101250Y-127500D02*
D03*
X45000Y-84000D02*
D03*
X35000D02*
D03*
X25000D02*
D03*
X15000D02*
D03*
X45000Y-114000D02*
D03*
X35000D02*
D03*
X25000D02*
D03*
X179000Y-47000D02*
D03*
Y-37000D02*
D03*
Y-27000D02*
D03*
Y-17000D02*
D03*
X149000Y-47000D02*
D03*
Y-37000D02*
D03*
Y-27000D02*
D03*
X15000Y-59000D02*
D03*
X25000D02*
D03*
X35000D02*
D03*
X45000D02*
D03*
X15000Y-29000D02*
D03*
X25000D02*
D03*
X35000D02*
D03*
D36*
X25000Y-145000D02*
D03*
X15000D02*
D03*
X87500D02*
D03*
X97500D02*
D03*
X107500D02*
D03*
X117500D02*
D03*
X127500D02*
D03*
X137500D02*
D03*
X177000D02*
D03*
X207000D02*
D03*
X105000Y-5000D02*
D03*
X95000D02*
D03*
D37*
X5000Y-145000D02*
D03*
X77500D02*
D03*
X167000D02*
D03*
X197000D02*
D03*
X115000Y-5000D02*
D03*
D38*
X80000Y-41685D02*
D03*
Y-22000D02*
D03*
X107500Y-57315D02*
D03*
Y-77000D02*
D03*
X197200Y-92637D02*
D03*
Y-84763D02*
D03*
D39*
X15000Y-114000D02*
D03*
X45000Y-29000D02*
D03*
D40*
X149000Y-17000D02*
D03*
M02*
