G04*
G04 #@! TF.GenerationSoftware,Altium Limited,Altium Designer,18.1.6 (161)*
G04*
G04 Layer_Color=255*
%FSLAX25Y25*%
%MOIN*%
G70*
G01*
G75*
%ADD32C,0.08661*%
%ADD33R,0.05543X0.05543*%
%ADD34C,0.05543*%
%ADD35C,0.05906*%
%ADD36C,0.07874*%
G04:AMPARAMS|DCode=37|XSize=78.74mil|YSize=78.74mil|CornerRadius=19.68mil|HoleSize=0mil|Usage=FLASHONLY|Rotation=0.000|XOffset=0mil|YOffset=0mil|HoleType=Round|Shape=RoundedRectangle|*
%AMROUNDEDRECTD37*
21,1,0.07874,0.03937,0,0,0.0*
21,1,0.03937,0.07874,0,0,0.0*
1,1,0.03937,0.01968,-0.01968*
1,1,0.03937,-0.01968,-0.01968*
1,1,0.03937,-0.01968,0.01968*
1,1,0.03937,0.01968,0.01968*
%
%ADD37ROUNDEDRECTD37*%
%ADD38C,0.06000*%
%ADD39R,0.05906X0.05906*%
%ADD40R,0.05906X0.05906*%
D32*
X165565Y-71400D02*
D03*
X185250D02*
D03*
X204935D02*
D03*
X125935Y-106400D02*
D03*
X106250D02*
D03*
X86565D02*
D03*
X7565Y-71400D02*
D03*
X27250D02*
D03*
X46935D02*
D03*
D33*
X58000Y-99000D02*
D03*
X68000D02*
D03*
X78000D02*
D03*
X55898Y-130000D02*
D03*
X66000D02*
D03*
X76000D02*
D03*
D34*
X58000Y-79000D02*
D03*
X68000D02*
D03*
X78000D02*
D03*
X55898Y-110000D02*
D03*
X66000D02*
D03*
X76000D02*
D03*
D35*
X111250Y-127500D02*
D03*
X101250Y-127500D02*
D03*
X45000Y-84000D02*
D03*
X35000D02*
D03*
X25000D02*
D03*
X15000D02*
D03*
X45000Y-114000D02*
D03*
X35000D02*
D03*
X25000D02*
D03*
X179000Y-47000D02*
D03*
Y-37000D02*
D03*
Y-27000D02*
D03*
Y-17000D02*
D03*
X149000Y-47000D02*
D03*
Y-37000D02*
D03*
Y-27000D02*
D03*
X15000Y-59000D02*
D03*
X25000D02*
D03*
X35000D02*
D03*
X45000D02*
D03*
X15000Y-29000D02*
D03*
X25000D02*
D03*
X35000D02*
D03*
D36*
X25000Y-145000D02*
D03*
X15000D02*
D03*
X87500D02*
D03*
X97500D02*
D03*
X107500D02*
D03*
X117500D02*
D03*
X127500D02*
D03*
X137500D02*
D03*
X177000D02*
D03*
X207000D02*
D03*
X105000Y-5000D02*
D03*
X95000D02*
D03*
D37*
X5000Y-145000D02*
D03*
X77500D02*
D03*
X167000D02*
D03*
X197000D02*
D03*
X115000Y-5000D02*
D03*
D38*
X80000Y-41685D02*
D03*
Y-22000D02*
D03*
X107500Y-57315D02*
D03*
Y-77000D02*
D03*
X197200Y-92637D02*
D03*
Y-84763D02*
D03*
D39*
X15000Y-114000D02*
D03*
X45000Y-29000D02*
D03*
D40*
X149000Y-17000D02*
D03*
M02*
