<?xml version="1.0" encoding="UTF-8" standalone="no"?>
<!-- Created with Inkscape (http://www.inkscape.org/) -->

<svg
   xmlns:dc="http://purl.org/dc/elements/1.1/"
   xmlns:cc="http://creativecommons.org/ns#"
   xmlns:rdf="http://www.w3.org/1999/02/22-rdf-syntax-ns#"
   xmlns:svg="http://www.w3.org/2000/svg"
   xmlns="http://www.w3.org/2000/svg"
   xmlns:xlink="http://www.w3.org/1999/xlink"
   xmlns:sodipodi="http://sodipodi.sourceforge.net/DTD/sodipodi-0.dtd"
   xmlns:inkscape="http://www.inkscape.org/namespaces/inkscape"
   width="20in"
   height="11.5in"
   viewBox="0 0 508.00001 292.10001"
   version="1.1"
   id="svg8"
   inkscape:version="0.92.3 (2405546, 2018-03-11)"
   sodipodi:docname="pai.svg">
  <defs
     id="defs2">
    <linearGradient
       inkscape:collect="always"
       id="linearGradient4775">
      <stop
         style="stop-color:#ff00ff;stop-opacity:1;"
         offset="0"
         id="stop4771" />
      <stop
         style="stop-color:#ff00ff;stop-opacity:0;"
         offset="1"
         id="stop4773" />
    </linearGradient>
    <linearGradient
       inkscape:collect="always"
       xlink:href="#linearGradient4775"
       id="linearGradient4777"
       x1="6.0179341"
       y1="165.68087"
       x2="30.336862"
       y2="165.68087"
       gradientUnits="userSpaceOnUse" />
  </defs>
  <sodipodi:namedview
     id="base"
     pagecolor="#ffffff"
     bordercolor="#666666"
     borderopacity="1.0"
     inkscape:pageopacity="0.0"
     inkscape:pageshadow="2"
     inkscape:zoom="1.9688504"
     inkscape:cx="176.04354"
     inkscape:cy="339.54007"
     inkscape:document-units="mm"
     inkscape:current-layer="layer1"
     showgrid="true"
     units="in"
     showguides="true"
     inkscape:window-width="3240"
     inkscape:window-height="2035"
     inkscape:window-x="-13"
     inkscape:window-y="-13"
     inkscape:window-maximized="1"
     inkscape:snap-global="true"
     inkscape:snap-smooth-nodes="true"
     inkscape:snap-object-midpoints="true"
     inkscape:snap-center="true">
    <inkscape:grid
       type="xygrid"
       id="grid3715"
       units="in"
       spacingx="3.1750001"
       spacingy="3.1750001"
       empspacing="4" />
  </sodipodi:namedview>
  <metadata
     id="metadata5">
    <rdf:RDF>
      <cc:Work
         rdf:about="">
        <dc:format>image/svg+xml</dc:format>
        <dc:type
           rdf:resource="http://purl.org/dc/dcmitype/StillImage" />
        <dc:title></dc:title>
      </cc:Work>
    </rdf:RDF>
  </metadata>
  <g
     inkscape:label="Layer 1"
     inkscape:groupmode="layer"
     id="layer1"
     transform="translate(0,-4.8999832)">
    <rect
       id="rect3717"
       width="66.236107"
       height="121.63351"
       x="50.800003"
       y="175.36647"
       style="fill:#000000;fill-opacity:0;stroke:#ff00ff;stroke-width:0.26108828;stroke-miterlimit:4;stroke-dasharray:none;stroke-opacity:1" />
    <circle
       style="fill:#000000;fill-opacity:0;stroke:#ff00ff;stroke-width:0.49657112;stroke-miterlimit:4;stroke-dasharray:none;stroke-opacity:1"
       id="path4524"
       cx="84.045059"
       cy="268.34656"
       r="7.7527146" />
    <ellipse
       style="fill:#000000;fill-opacity:0;stroke:#ff00ff;stroke-width:0.24632281;stroke-miterlimit:4;stroke-dasharray:none;stroke-opacity:1"
       id="path4524-5"
       cx="84.045059"
       cy="220.7083"
       rx="3.8455887"
       ry="3.8458385" />
    <circle
       style="fill:#000000;fill-opacity:0;stroke:#ff00ff;stroke-width:0.40356258;stroke-miterlimit:4;stroke-dasharray:none;stroke-opacity:1"
       id="path4524-5-4"
       cx="84.045059"
       cy="199.72153"
       r="6.3006186" />
    <circle
       style="fill:#000000;fill-opacity:0;stroke:#ff00ff;stroke-width:0.40356261;stroke-miterlimit:4;stroke-dasharray:none;stroke-opacity:1"
       id="path4524-5-4-4"
       cx="104.11106"
       cy="190.83153"
       r="6.3006186" />
    <circle
       style="fill:#000000;fill-opacity:0;stroke:#ff00ff;stroke-width:0.40356261;stroke-miterlimit:4;stroke-dasharray:none;stroke-opacity:1"
       id="path4524-5-4-7"
       cx="63.979061"
       cy="190.83153"
       r="6.3006186" />
    <text
       xml:space="preserve"
       style="font-style:normal;font-weight:normal;font-size:10.58333302px;line-height:1.25;font-family:sans-serif;letter-spacing:0px;word-spacing:0px;fill:none;fill-opacity:1;stroke:#ff00ff;stroke-width:0.26458332;stroke-opacity:1;"
       x="66.789215"
       y="309.82599"
       id="text4614"><tspan
         sodipodi:role="line"
         id="tspan4612"
         x="66.789215"
         y="309.82599"
         style="stroke-width:0.26458332;stroke:#ff00ff;stroke-opacity:1;fill:none;">FRONT</tspan></text>
    <rect
       id="rect3717-5-2"
       width="35.115841"
       height="121.70444"
       x="127.09508"
       y="175.32747"
       style="fill:#000000;fill-opacity:0;stroke:#b400b4;stroke-width:0.19015953;stroke-miterlimit:4;stroke-dasharray:none;stroke-opacity:1" />
    <text
       xml:space="preserve"
       style="font-style:normal;font-weight:normal;font-size:10.58333302px;line-height:1.25;font-family:sans-serif;letter-spacing:0px;word-spacing:0px;fill:none;fill-opacity:1;stroke:#b400b4;stroke-width:0.26458332;stroke-opacity:1;"
       x="127.78754"
       y="168.94383"
       id="text4614-9-0"><tspan
         sodipodi:role="line"
         id="tspan4612-7-4"
         x="127.78754"
         y="168.94383"
         style="stroke-width:0.26458332;stroke:#b400b4;stroke-opacity:1;fill:none;">RIGHT</tspan></text>
    <circle
       style="fill:#000000;fill-opacity:0;stroke:#b400b4;stroke-width:0.24631506;stroke-miterlimit:4;stroke-dasharray:none;stroke-opacity:1"
       id="path4524-5-4-9-8"
       cx="151.511"
       cy="250.64499"
       r="3.8455925" />
    <rect
       id="rect3717-5"
       width="35.115841"
       height="121.70444"
       x="0"
       y="175.29555"
       style="fill:#000000;fill-opacity:0;stroke:#dc00dc;stroke-width:0.19015953;stroke-miterlimit:4;stroke-dasharray:none;stroke-opacity:1" />
    <text
       xml:space="preserve"
       style="font-style:normal;font-weight:normal;font-size:10.58333302px;line-height:1.25;font-family:sans-serif;letter-spacing:0px;word-spacing:0px;fill:#000000;fill-opacity:0;stroke:#dc00dc;stroke-width:0.26458332;stroke-opacity:1;"
       x="4.9844055"
       y="169.52818"
       id="text4614-9"><tspan
         sodipodi:role="line"
         id="tspan4612-7"
         x="4.9844055"
         y="169.52818"
         style="stroke-width:0.26458332;fill:#000000;fill-opacity:0;stroke:#dc00dc;stroke-opacity:1;">LEFT</tspan></text>
    <circle
       style="fill:#000000;fill-opacity:0;stroke:#dc00dc;stroke-width:0.24631506;stroke-miterlimit:4;stroke-dasharray:none;stroke-opacity:1"
       id="path4524-5-4-9"
       cx="10.706269"
       cy="250.61308"
       r="3.8455925" />
    <rect
       id="rect3717-8"
       width="66.356689"
       height="35.165489"
       x="50.739716"
       y="109.49124"
       style="fill:none;fill-opacity:0;stroke:#c800c8;stroke-width:0.1405122;stroke-miterlimit:4;stroke-dasharray:none;stroke-opacity:1" />
    <circle
       style="fill:none;fill-opacity:0;stroke:#c800c8;stroke-width:0.39410412;stroke-miterlimit:4;stroke-dasharray:none;stroke-opacity:1"
       id="path4524-5-4-1"
       cx="83.9216"
       cy="133.55098"
       r="6.1529479" />
    <text
       xml:space="preserve"
       style="font-style:normal;font-weight:normal;font-size:10.58333302px;line-height:1.25;font-family:sans-serif;letter-spacing:0px;word-spacing:0px;fill:none;fill-opacity:1;stroke:#c800c8;stroke-width:0.26458332;stroke-opacity:1;"
       x="74.282135"
       y="105.95535"
       id="text4614-5"><tspan
         sodipodi:role="line"
         id="tspan4612-9"
         x="74.282135"
         y="105.95535"
         style="stroke-width:0.26458332;fill:none;stroke:#c800c8;stroke-opacity:1;">TOP</tspan></text>
    <g
       aria-label="派"
       transform="matrix(0.60959997,0,0,0.61700402,-85.911318,-317.13378)"
       style="font-style:normal;font-weight:normal;font-size:53.33333588px;line-height:1.25;font-family:sans-serif;letter-spacing:0px;word-spacing:0px;fill:#00ff00;fill-opacity:1;stroke:none"
       id="flowRoot4787">
      <path
         d="m 258.09375,880.56908 q 4.47917,3.22916 9.0625,6.97916 l -5,5.20834 q -4.01042,-4.11459 -8.38542,-7.65625 z m 9.84375,4.6875 q 15.72917,-0.72917 33.48959,-3.22917 l 2.13541,6.40625 q -19.6875,2.5 -28.80208,2.96875 v 14.58333 q 0,8.02084 -1.27604,14.03646 -1.25,5.98959 -4.71355,11.90104 -1.09375,-1.25 -5.9375,-5 5.10417,-7.1875 5.10417,-20.46875 z m 16.19792,36.61458 q 2.86458,-1.45833 6.45833,-3.07292 0.0521,1.71875 0.83334,6.25 -9.68751,4.42709 -12.29167,6.97917 l -3.64584,-5.05208 q 2.29167,-2.23959 2.23959,-5.9375 v -25.46875 q 11.82292,-1.04167 22.5,-3.28125 l 2.70833,6.09375 q -5.36458,1.09375 -9.97396,1.82291 0.625,3.69792 1.53646,6.95313 3.56771,-1.74479 6.875,-3.77604 l 3.33334,5.52083 q -4.58334,2.23958 -8.3073,3.77604 3.3073,7.73438 8.46355,11.84896 l -5.15625,6.45833 q -10.26042,-10.83333 -12.60417,-30 -1.53646,0.15625 -2.96875,0.26042 z M 257,894.47533 q 4.84375,3.59375 8.75,7.03125 l -4.6875,5.41666 -8.28125,-7.5 z m 1.04167,14.79166 q 4.16666,1.66667 6.71875,2.44792 l -4.94792,19.6875 q -3.4375,-1.19792 -6.875,-2.13542 2.70833,-8.59375 5.10417,-20 z"
         style="font-style:normal;font-variant:normal;font-weight:bold;font-stretch:normal;font-size:53.33333588px;font-family:'Microsoft YaHei';-inkscape-font-specification:'Microsoft YaHei Bold';fill:#00ff00;fill-opacity:1"
         id="path4911" />
    </g>
    <g
       aria-label="SUSTAIN"
       style="font-style:normal;font-variant:normal;font-weight:normal;font-stretch:normal;font-size:7.05555534px;line-height:1.25;font-family:'Microsoft YaHei';-inkscape-font-specification:'Microsoft YaHei';letter-spacing:0px;word-spacing:0px;fill:#00ff00;fill-opacity:1;stroke:none;stroke-width:0.26458332"
       id="text4797">
      <path
         d="m 56.036548,200.66629 q 0.405144,0.34726 0.810287,0.57877 0.443728,0.25081 0.443728,0.73312 0,0.48231 -0.289388,0.7717 -0.270095,0.2701 -0.752409,0.2701 -0.46302,0 -0.713823,-0.2508 -0.308681,-0.30869 -0.308681,-0.73312 v -0.19293 h 0.443728 v 0.17364 q 0,0.30868 0.154341,0.46302 0.15434,0.15434 0.38585,0.15434 0.308681,0 0.463021,-0.15434 0.173633,-0.17364 0.173633,-0.44373 0,-0.28939 -0.270096,-0.46302 -0.482313,-0.30868 -0.906749,-0.65595 -0.30868,-0.2508 -0.327973,-0.67524 -0.01929,-0.42443 0.289388,-0.71382 0.289388,-0.2701 0.636654,-0.2701 0.424436,0 0.655946,0.23151 0.289388,0.28939 0.270096,0.81029 h -0.443729 q 0.03859,-0.32797 -0.15434,-0.5209 -0.135048,-0.13505 -0.327973,-0.13505 -0.192925,0 -0.327973,0.13505 -0.173633,0.17364 -0.173633,0.40515 0,0.2508 0.270095,0.48231 z"
         style="font-style:normal;font-variant:normal;font-weight:normal;font-stretch:normal;font-size:4.93888903px;font-family:'MS Gothic';-inkscape-font-specification:'MS Gothic';fill:#00ff00;fill-opacity:1;stroke-width:0.26458332"
         id="path4923" />
      <path
         d="m 57.734292,199.25793 h 0.443728 v 2.75884 q 0,0.30868 0.135048,0.44372 0.135047,0.13505 0.405143,0.13505 h 0.01929 q 0.250803,0 0.385851,-0.13505 0.15434,-0.15434 0.15434,-0.44372 v -2.75884 h 0.443729 v 2.75884 q 0,0.5016 -0.289388,0.79099 -0.212218,0.21222 -0.694532,0.21222 h -0.01929 q -0.482314,0 -0.694531,-0.21222 -0.289388,-0.28939 -0.289388,-0.79099 z"
         style="font-style:normal;font-variant:normal;font-weight:normal;font-stretch:normal;font-size:4.93888903px;font-family:'MS Gothic';-inkscape-font-specification:'MS Gothic';fill:#00ff00;fill-opacity:1;stroke-width:0.26458332"
         id="path4925" />
      <path
         d="m 60.975437,200.66629 q 0.405144,0.34726 0.810287,0.57877 0.443728,0.25081 0.443728,0.73312 0,0.48231 -0.289388,0.7717 -0.270095,0.2701 -0.752409,0.2701 -0.46302,0 -0.713823,-0.2508 -0.308681,-0.30869 -0.308681,-0.73312 v -0.19293 h 0.443728 v 0.17364 q 0,0.30868 0.154341,0.46302 0.15434,0.15434 0.38585,0.15434 0.308681,0 0.463021,-0.15434 0.173633,-0.17364 0.173633,-0.44373 0,-0.28939 -0.270096,-0.46302 -0.482313,-0.30868 -0.906749,-0.65595 -0.30868,-0.2508 -0.327973,-0.67524 -0.01929,-0.42443 0.289388,-0.71382 0.289388,-0.2701 0.636654,-0.2701 0.424436,0 0.655946,0.23151 0.289388,0.28939 0.270096,0.81029 h -0.443729 q 0.03858,-0.32797 -0.15434,-0.5209 -0.135048,-0.13505 -0.327973,-0.13505 -0.192925,0 -0.327973,0.13505 -0.173633,0.17364 -0.173633,0.40515 0,0.2508 0.270095,0.48231 z"
         style="font-style:normal;font-variant:normal;font-weight:normal;font-stretch:normal;font-size:4.93888903px;font-family:'MS Gothic';-inkscape-font-specification:'MS Gothic';fill:#00ff00;fill-opacity:1;stroke-width:0.26458332"
         id="path4927" />
      <path
         d="m 63.42559,203.01998 v -1.69774 -1.69775 h -0.752409 v -0.36656 h 1.987131 v 0.36656 h -0.790994 v 3.39549 z"
         style="font-style:normal;font-variant:normal;font-weight:normal;font-stretch:normal;font-size:4.93888903px;font-family:'MS Gothic';-inkscape-font-specification:'MS Gothic';fill:#00ff00;fill-opacity:1;stroke-width:0.26458332"
         id="path4929" />
      <path
         d="m 65.451306,203.01998 h -0.463021 l 0.964627,-3.76205 h 0.38585 l 0.964627,3.76205 h -0.463021 l -0.270095,-1.09968 h -0.848872 z m 0.713823,-2.73954 h -0.03858 l -0.30868,1.27331 h 0.655946 z"
         style="font-style:normal;font-variant:normal;font-weight:normal;font-stretch:normal;font-size:4.93888903px;font-family:'MS Gothic';-inkscape-font-specification:'MS Gothic';fill:#00ff00;fill-opacity:1;stroke-width:0.26458332"
         id="path4931" />
      <path
         d="m 68.827499,202.59554 h 0.212218 v 0.42444 h -0.868164 v -0.42444 h 0.212218 v -2.91317 h -0.212218 v -0.42444 h 0.868164 v 0.42444 h -0.212218 z"
         style="font-style:normal;font-variant:normal;font-weight:normal;font-stretch:normal;font-size:4.93888903px;font-family:'MS Gothic';-inkscape-font-specification:'MS Gothic';fill:#00ff00;fill-opacity:1;stroke-width:0.26458332"
         id="path4933" />
      <path
         d="m 72.068646,199.25793 v 3.76205 h -0.540191 l -1.003212,-2.81671 h -0.01929 v 2.81671 h -0.443728 v -3.76205 h 0.540191 l 1.003212,2.81671 h 0.01929 v -2.81671 z"
         style="font-style:normal;font-variant:normal;font-weight:normal;font-stretch:normal;font-size:4.93888903px;font-family:'MS Gothic';-inkscape-font-specification:'MS Gothic';fill:#00ff00;fill-opacity:1;stroke-width:0.26458332"
         id="path4935" />
    </g>
    <g
       aria-label="TONE"
       style="font-style:normal;font-variant:normal;font-weight:normal;font-stretch:normal;font-size:7.05555534px;line-height:1.25;font-family:'Microsoft YaHei';-inkscape-font-specification:'Microsoft YaHei';letter-spacing:0px;word-spacing:0px;fill:#00ff00;fill-opacity:1;stroke:none;stroke-width:0.26458332"
       id="text4797-2">
      <path
         d="m 80.163538,212.67199 v -1.69775 -1.69774 h -0.752409 v -0.36656 h 1.987131 v 0.36656 h -0.790994 v 3.39549 z"
         style="font-style:normal;font-variant:normal;font-weight:bold;font-stretch:normal;font-size:4.93888903px;font-family:'MS Gothic';-inkscape-font-specification:'MS Gothic Bold';fill:#00ff00;fill-opacity:1;stroke-width:0.26458332"
         id="path4914" />
      <path
         d="m 83.520439,209.16074 q 0.424436,0.42444 0.424436,1.62058 0,1.21543 -0.424436,1.63986 -0.250803,0.25081 -0.636653,0.25081 -0.405144,0 -0.655947,-0.25081 -0.424435,-0.42443 -0.424435,-1.63986 0,-1.19614 0.424435,-1.62058 0.250803,-0.2508 0.655947,-0.2508 0.38585,0 0.636653,0.2508 z m -1.022504,0.28939 q -0.250803,0.25081 -0.250803,1.33119 0,1.09967 0.250803,1.35048 0.173633,0.17363 0.385851,0.17363 0.192925,0 0.366558,-0.17363 0.250803,-0.25081 0.250803,-1.35048 0,-1.08038 -0.250803,-1.33119 -0.173633,-0.17363 -0.366558,-0.17363 -0.212218,0 -0.385851,0.17363 z"
         style="font-style:normal;font-variant:normal;font-weight:bold;font-stretch:normal;font-size:4.93888903px;font-family:'MS Gothic';-inkscape-font-specification:'MS Gothic Bold';fill:#00ff00;fill-opacity:1;stroke-width:0.26458332"
         id="path4916" />
      <path
         d="m 86.337149,208.90994 v 3.76205 h -0.540191 l -1.003211,-2.81671 h -0.01929 v 2.81671 h -0.443728 v -3.76205 h 0.540191 l 1.003212,2.81671 h 0.01929 v -2.81671 z"
         style="font-style:normal;font-variant:normal;font-weight:bold;font-stretch:normal;font-size:4.93888903px;font-family:'MS Gothic';-inkscape-font-specification:'MS Gothic Bold';fill:#00ff00;fill-opacity:1;stroke-width:0.26458332"
         id="path4918" />
      <path
         d="m 87.321069,210.49193 h 1.311892 v 0.36656 h -1.311892 v 1.44694 h 1.52411 v 0.36656 h -1.967838 v -3.76205 h 1.871376 v 0.36656 h -1.427648 z"
         style="font-style:normal;font-variant:normal;font-weight:bold;font-stretch:normal;font-size:4.93888903px;font-family:'MS Gothic';-inkscape-font-specification:'MS Gothic Bold';fill:#00ff00;fill-opacity:1;stroke-width:0.26458332"
         id="path4920" />
    </g>
    <g
       aria-label="VOLUME"
       style="font-style:normal;font-variant:normal;font-weight:bold;font-stretch:normal;font-size:3.52777767px;line-height:1.25;font-family:'Microsoft YaHei';-inkscape-font-specification:'Microsoft YaHei Bold';letter-spacing:0px;word-spacing:0px;fill:#00ff00;fill-opacity:1;stroke:none;stroke-width:0.26458332"
       id="text4819">
      <path
         d="m 97.906852,199.25793 0.655946,2.8553 h 0.03858 l 0.655947,-2.8553 h 0.443728 l -0.906749,3.76205 h -0.424436 l -0.906749,-3.76205 z"
         style="font-style:normal;font-variant:normal;font-weight:bold;font-stretch:normal;font-size:4.93888903px;font-family:'MS Gothic';-inkscape-font-specification:'MS Gothic Bold';fill:#00ff00;fill-opacity:1;stroke-width:0.26458332"
         id="path4938" />
      <path
         d="m 101.70748,199.50874 q 0.42444,0.42443 0.42444,1.62057 0,1.21543 -0.42444,1.63987 -0.2508,0.2508 -0.63665,0.2508 -0.40515,0 -0.65595,-0.2508 -0.424434,-0.42444 -0.424434,-1.63987 0,-1.19614 0.424434,-1.62057 0.2508,-0.25081 0.65595,-0.25081 0.38585,0 0.63665,0.25081 z m -1.0225,0.28938 q -0.25081,0.25081 -0.25081,1.33119 0,1.09967 0.25081,1.35048 0.17363,0.17363 0.38585,0.17363 0.19292,0 0.36656,-0.17363 0.2508,-0.25081 0.2508,-1.35048 0,-1.08038 -0.2508,-1.33119 -0.17364,-0.17363 -0.36656,-0.17363 -0.21222,0 -0.38585,0.17363 z"
         style="font-style:normal;font-variant:normal;font-weight:bold;font-stretch:normal;font-size:4.93888903px;font-family:'MS Gothic';-inkscape-font-specification:'MS Gothic Bold';fill:#00ff00;fill-opacity:1;stroke-width:0.26458332"
         id="path4940" />
      <path
         d="m 102.55635,199.25793 h 0.44373 v 3.39549 h 1.5627 v 0.36656 h -2.00643 z"
         style="font-style:normal;font-variant:normal;font-weight:bold;font-stretch:normal;font-size:4.93888903px;font-family:'MS Gothic';-inkscape-font-specification:'MS Gothic Bold';fill:#00ff00;fill-opacity:1;stroke-width:0.26458332"
         id="path4942" />
      <path
         d="m 105.00651,199.25793 h 0.44372 v 2.75884 q 0,0.30868 0.13505,0.44372 0.13505,0.13505 0.40514,0.13505 h 0.0193 q 0.2508,0 0.38585,-0.13505 0.15434,-0.15434 0.15434,-0.44372 v -2.75884 h 0.44373 v 2.75884 q 0,0.5016 -0.28939,0.79099 -0.21222,0.21222 -0.69453,0.21222 h -0.0193 q -0.48231,0 -0.69453,-0.21222 -0.28938,-0.28939 -0.28938,-0.79099 z"
         style="font-style:normal;font-variant:normal;font-weight:bold;font-stretch:normal;font-size:4.93888903px;font-family:'MS Gothic';-inkscape-font-specification:'MS Gothic Bold';fill:#00ff00;fill-opacity:1;stroke-width:0.26458332"
         id="path4944" />
      <path
         d="m 107.82322,200.20327 v 2.81671 h -0.38586 v -3.76205 h 0.61737 l 0.40514,2.45016 h 0.0386 l 0.40515,-2.45016 h 0.61736 v 3.76205 h -0.38585 v -2.81671 h -0.0386 l -0.46302,2.81671 h -0.30868 l -0.46302,-2.81671 z"
         style="font-style:normal;font-variant:normal;font-weight:bold;font-stretch:normal;font-size:4.93888903px;font-family:'MS Gothic';-inkscape-font-specification:'MS Gothic Bold';fill:#00ff00;fill-opacity:1;stroke-width:0.26458332"
         id="path4946" />
      <path
         d="m 110.447,200.83992 h 1.31189 v 0.36656 H 110.447 v 1.44694 h 1.52411 v 0.36656 h -1.96784 v -3.76205 h 1.87138 v 0.36656 H 110.447 Z"
         style="font-style:normal;font-variant:normal;font-weight:bold;font-stretch:normal;font-size:4.93888903px;font-family:'MS Gothic';-inkscape-font-specification:'MS Gothic Bold';fill:#00ff00;fill-opacity:1;stroke-width:0.26458332"
         id="path4948" />
    </g>
    <path
       style="color:#000000;font-style:normal;font-variant:normal;font-weight:normal;font-stretch:normal;font-size:medium;line-height:normal;font-family:sans-serif;font-variant-ligatures:normal;font-variant-position:normal;font-variant-caps:normal;font-variant-numeric:normal;font-variant-alternates:normal;font-feature-settings:normal;text-indent:0;text-align:start;text-decoration:none;text-decoration-line:none;text-decoration-style:solid;text-decoration-color:#000000;letter-spacing:normal;word-spacing:normal;text-transform:none;writing-mode:lr-tb;direction:ltr;text-orientation:mixed;dominant-baseline:auto;baseline-shift:baseline;text-anchor:start;white-space:normal;shape-padding:0;clip-rule:nonzero;display:inline;overflow:visible;visibility:visible;opacity:1;isolation:auto;mix-blend-mode:normal;color-interpolation:sRGB;color-interpolation-filters:linearRGB;solid-color:#000000;solid-opacity:1;vector-effect:none;fill:#00ffff;fill-opacity:1;fill-rule:nonzero;stroke:none;stroke-width:2.61619997;stroke-linecap:round;stroke-linejoin:round;stroke-miterlimit:20;stroke-dasharray:none;stroke-dashoffset:0;stroke-opacity:1;color-rendering:auto;image-rendering:auto;shape-rendering:auto;text-rendering:auto;enable-background:accumulate"
       d="m 57.146484,176.95312 c -2.354185,0 -4.474609,1.69477 -4.474609,4.01563 v 14.43164 a 1.3085935,1.3085935 0 1 0 2.617187,0 v -14.43164 c 0,-0.67992 0.704725,-1.40039 1.857422,-1.40039 h 53.804686 c 1.1527,0 1.85742,0.72047 1.85742,1.40039 v 14.43164 a 1.3082308,1.3082308 0 1 0 2.61524,0 v -14.43164 c 0,-2.32086 -2.11847,-4.01563 -4.47266,-4.01563 z"
       id="path4868"
       inkscape:connector-curvature="0" />
    <path
       style="color:#000000;font-style:normal;font-variant:normal;font-weight:normal;font-stretch:normal;font-size:medium;line-height:normal;font-family:sans-serif;font-variant-ligatures:normal;font-variant-position:normal;font-variant-caps:normal;font-variant-numeric:normal;font-variant-alternates:normal;font-feature-settings:normal;text-indent:0;text-align:start;text-decoration:none;text-decoration-line:none;text-decoration-style:solid;text-decoration-color:#000000;letter-spacing:normal;word-spacing:normal;text-transform:none;writing-mode:lr-tb;direction:ltr;text-orientation:mixed;dominant-baseline:auto;baseline-shift:baseline;text-anchor:start;white-space:normal;shape-padding:0;clip-rule:nonzero;display:inline;overflow:visible;visibility:visible;opacity:1;isolation:auto;mix-blend-mode:normal;color-interpolation:sRGB;color-interpolation-filters:linearRGB;solid-color:#000000;solid-opacity:1;vector-effect:none;fill:#00ffff;fill-opacity:1;fill-rule:nonzero;stroke:none;stroke-width:2.82121396;stroke-linecap:round;stroke-linejoin:round;stroke-miterlimit:20;stroke-dasharray:none;stroke-dashoffset:0;stroke-opacity:1;color-rendering:auto;image-rendering:auto;shape-rendering:auto;text-rendering:auto;enable-background:accumulate"
       d="m 53.951172,204.56055 a 1.410748,1.410748 0 0 0 -1.388672,1.42968 v 84.70508 c 0,2.50026 2.073404,4.54297 4.576172,4.54297 h 53.820308 c 2.50277,0 4.57618,-2.04271 4.57618,-4.54297 v -84.70508 a 1.410748,1.410748 0 1 0 -2.82032,0 v 84.70508 c 0,0.96946 -0.75078,1.72266 -1.75586,1.72266 H 57.138672 c -1.005078,0 -1.75586,-0.75319 -1.75586,-1.72266 v -84.70508 a 1.410748,1.410748 0 0 0 -1.43164,-1.42968 z"
       id="path4864"
       inkscape:connector-curvature="0" />
    <path
       style="color:#000000;font-style:normal;font-variant:normal;font-weight:normal;font-stretch:normal;font-size:medium;line-height:normal;font-family:sans-serif;font-variant-ligatures:normal;font-variant-position:normal;font-variant-caps:normal;font-variant-numeric:normal;font-variant-alternates:normal;font-feature-settings:normal;text-indent:0;text-align:start;text-decoration:none;text-decoration-line:none;text-decoration-style:solid;text-decoration-color:#000000;letter-spacing:normal;word-spacing:normal;text-transform:none;writing-mode:lr-tb;direction:ltr;text-orientation:mixed;dominant-baseline:auto;baseline-shift:baseline;text-anchor:start;white-space:normal;shape-padding:0;clip-rule:nonzero;display:inline;overflow:visible;visibility:visible;opacity:1;isolation:auto;mix-blend-mode:normal;color-interpolation:sRGB;color-interpolation-filters:linearRGB;solid-color:#000000;solid-opacity:1;vector-effect:none;fill:#00ffff;fill-opacity:1;fill-rule:nonzero;stroke:none;stroke-width:2.53999996;stroke-linecap:round;stroke-linejoin:round;stroke-miterlimit:4;stroke-dasharray:none;stroke-dashoffset:0;stroke-opacity:1;color-rendering:auto;image-rendering:auto;shape-rendering:auto;text-rendering:auto;enable-background:accumulate"
       d="m 53.974609,241.75586 a 1.270127,1.270127 0 1 0 0,2.53906 H 63.5 a 1.270127,1.270127 0 1 0 0,-2.53906 z"
       id="path4870"
       inkscape:connector-curvature="0" />
    <path
       style="color:#000000;font-style:normal;font-variant:normal;font-weight:normal;font-stretch:normal;font-size:medium;line-height:normal;font-family:sans-serif;font-variant-ligatures:normal;font-variant-position:normal;font-variant-caps:normal;font-variant-numeric:normal;font-variant-alternates:normal;font-feature-settings:normal;text-indent:0;text-align:start;text-decoration:none;text-decoration-line:none;text-decoration-style:solid;text-decoration-color:#000000;letter-spacing:normal;word-spacing:normal;text-transform:none;writing-mode:lr-tb;direction:ltr;text-orientation:mixed;dominant-baseline:auto;baseline-shift:baseline;text-anchor:start;white-space:normal;shape-padding:0;clip-rule:nonzero;display:inline;overflow:visible;visibility:visible;opacity:1;isolation:auto;mix-blend-mode:normal;color-interpolation:sRGB;color-interpolation-filters:linearRGB;solid-color:#000000;solid-opacity:1;vector-effect:none;fill:#00ffff;fill-opacity:1;fill-rule:nonzero;stroke:none;stroke-width:2.53999996;stroke-linecap:round;stroke-linejoin:round;stroke-miterlimit:4;stroke-dasharray:none;stroke-dashoffset:0;stroke-opacity:1;color-rendering:auto;image-rendering:auto;shape-rendering:auto;text-rendering:auto;enable-background:accumulate"
       d="m 104.77539,241.75586 a 1.270127,1.270127 0 1 0 0,2.53906 h 9.52539 a 1.270127,1.270127 0 1 0 0,-2.53906 z"
       id="path4872"
       inkscape:connector-curvature="0" />
    <g
       aria-label="INPUT"
       transform="rotate(-90)"
       style="font-style:normal;font-variant:normal;font-weight:normal;font-stretch:normal;font-size:7.05555534px;line-height:1.25;font-family:'Microsoft YaHei';-inkscape-font-specification:'Microsoft YaHei';letter-spacing:0px;word-spacing:0px;fill:#646400;fill-opacity:1;stroke:none;stroke-width:0.26458332"
       id="text4797-2-3">
      <path
         d="m -255.80242,145.6077 h 0.21222 v 0.42444 h -0.86817 v -0.42444 h 0.21222 v -2.91317 h -0.21222 v -0.42443 h 0.86817 v 0.42443 h -0.21222 z"
         style="font-style:normal;font-variant:normal;font-weight:bold;font-stretch:normal;font-size:4.93888903px;font-family:'MS Gothic';-inkscape-font-specification:'MS Gothic Bold';fill:#646400;fill-opacity:1;stroke-width:0.26458332"
         id="path4900" />
      <path
         d="m -252.56127,142.2701 v 3.76204 h -0.54019 l -1.00322,-2.81671 h -0.0193 v 2.81671 h -0.44373 v -3.76204 h 0.54019 l 1.00322,2.81671 h 0.0193 v -2.81671 z"
         style="font-style:normal;font-variant:normal;font-weight:bold;font-stretch:normal;font-size:4.93888903px;font-family:'MS Gothic';-inkscape-font-specification:'MS Gothic Bold';fill:#646400;fill-opacity:1;stroke-width:0.26458332"
         id="path4902" />
      <path
         d="m -251.59665,142.63665 v 1.42765 h 0.44373 q 0.34727,0 0.54019,-0.19292 0.17364,-0.17364 0.17364,-0.5209 0,-0.34727 -0.17364,-0.5209 -0.19292,-0.19293 -0.54019,-0.19293 z m 0.55949,-0.36655 q 0.46302,0 0.73311,0.27009 0.28939,0.28939 0.28939,0.81029 0,0.5209 -0.28939,0.81028 -0.27009,0.2701 -0.73311,0.2701 h -0.55949 v 1.60128 h -0.44372 v -3.76204 z"
         style="font-style:normal;font-variant:normal;font-weight:bold;font-stretch:normal;font-size:4.93888903px;font-family:'MS Gothic';-inkscape-font-specification:'MS Gothic Bold';fill:#646400;fill-opacity:1;stroke-width:0.26458332"
         id="path4904" />
      <path
         d="m -249.60951,142.2701 h 0.44372 v 2.75883 q 0,0.30868 0.13505,0.44373 0.13505,0.13504 0.40514,0.13504 h 0.0193 q 0.2508,0 0.38585,-0.13504 0.15434,-0.15434 0.15434,-0.44373 v -2.75883 h 0.44373 v 2.75883 q 0,0.5016 -0.28939,0.79099 -0.21222,0.21222 -0.69453,0.21222 h -0.0193 q -0.48231,0 -0.69453,-0.21222 -0.28938,-0.28939 -0.28938,-0.79099 z"
         style="font-style:normal;font-variant:normal;font-weight:bold;font-stretch:normal;font-size:4.93888903px;font-family:'MS Gothic';-inkscape-font-specification:'MS Gothic Bold';fill:#646400;fill-opacity:1;stroke-width:0.26458332"
         id="path4906" />
      <path
         d="m -246.38766,146.03214 v -1.69774 -1.69775 h -0.75241 v -0.36655 h 1.98713 v 0.36655 h -0.79099 v 3.39549 z"
         style="font-style:normal;font-variant:normal;font-weight:bold;font-stretch:normal;font-size:4.93888903px;font-family:'MS Gothic';-inkscape-font-specification:'MS Gothic Bold';fill:#646400;fill-opacity:1;stroke-width:0.26458332"
         id="path4908" />
    </g>
    <text
       xml:space="preserve"
       style="font-style:normal;font-variant:normal;font-weight:normal;font-stretch:normal;font-size:7.05555534px;line-height:1.25;font-family:'Microsoft YaHei';-inkscape-font-specification:'Microsoft YaHei';letter-spacing:0px;word-spacing:0px;fill:#969600;fill-opacity:1;stroke:none;stroke-width:0.26458332;"
       x="243.72453"
       y="-16.55839"
       id="text4797-2-8"
       transform="rotate(90)"><tspan
         sodipodi:role="line"
         id="tspan4795-5"
         x="243.72453"
         y="-16.55839"
         style="font-style:normal;font-variant:normal;font-weight:bold;font-stretch:normal;font-size:4.93888903px;font-family:'MS Gothic';-inkscape-font-specification:'MS Gothic Bold';fill:#969600;fill-opacity:1;stroke-width:0.26458332;">OUTPUT</tspan></text>
    <text
       xml:space="preserve"
       style="font-style:normal;font-variant:normal;font-weight:normal;font-stretch:normal;font-size:7.05555534px;line-height:1.25;font-family:'Microsoft YaHei';-inkscape-font-specification:'Microsoft YaHei';letter-spacing:0px;word-spacing:0px;fill:#ff9600;fill-opacity:1;stroke:none;stroke-width:0.26458332"
       x="-96.998322"
       y="-121.19094"
       id="text4797-2-5"
       transform="scale(-1)"><tspan
         sodipodi:role="line"
         id="tspan4795-5-6"
         x="-96.998322"
         y="-121.19094"
         style="font-style:normal;font-variant:normal;font-weight:bold;font-stretch:normal;font-size:4.93888903px;font-family:'MS Gothic';-inkscape-font-specification:'MS Gothic Bold';fill:#ff9600;fill-opacity:1;stroke-width:0.26458332">9V DC CTR -</tspan></text>
    <g
       id="g5164"
       transform="rotate(-180,54.769011,111.14311)">
      <path
         id="path4967"
         d="m -32.123279,106.50118 a 2.801724,2.8017242 0 0 1 -2.801724,2.80173 2.801724,2.8017242 0 0 1 -2.801724,-2.80173 2.801724,2.8017242 0 0 1 2.801724,-2.80172 2.801724,2.8017242 0 0 1 2.801724,2.80172 z"
         style="fill:none;fill-opacity:1;stroke:#ff9600;stroke-width:0.89655179;stroke-linecap:round;stroke-linejoin:round;stroke-miterlimit:4;stroke-dasharray:none;stroke-opacity:1"
         transform="scale(-1,1)"
         inkscape:connector-curvature="0" />
      <g
         id="text4971"
         style="font-style:normal;font-variant:normal;font-weight:normal;font-stretch:normal;font-size:7.05555534px;line-height:1.25;font-family:'Microsoft YaHei';-inkscape-font-specification:'Microsoft YaHei';letter-spacing:0px;word-spacing:0px;fill:#ff9600;fill-opacity:1;stroke:none;stroke-width:0.26458332"
         transform="scale(-1,1)"
         aria-label="+">
        <path
           id="path5140"
           style="fill:#ff9600;fill-opacity:1;stroke-width:0.26458332"
           d="m -33.183749,106.79518 h -1.498617 v 1.49173 h -0.520209 v -1.49173 h -1.491727 v -0.5271 h 1.491727 v -1.49172 h 0.520209 v 1.49172 h 1.498617 z"
           inkscape:connector-curvature="0" />
      </g>
      <g
         id="text4975"
         style="font-style:normal;font-variant:normal;font-weight:normal;font-stretch:normal;font-size:9.66797256px;line-height:1.25;font-family:'Microsoft YaHei';-inkscape-font-specification:'Microsoft YaHei';letter-spacing:0px;word-spacing:0px;fill:#ff9600;fill-opacity:1;stroke:none;stroke-width:0.36254898"
         transform="scale(-1.3702639,0.72978643)"
         aria-label="-">
        <path
           id="path5137"
           style="fill:#ff9600;fill-opacity:1;stroke-width:0.36254898"
           d="m -10.195119,146.29335 h -2.780487 v -0.71282 h 2.780487 z"
           inkscape:connector-curvature="0" />
      </g>
      <path
         transform="matrix(0.26458333,0,0,0.26458333,0,4.8999832)"
         id="path4967-5"
         d="m 96.001953,371.73828 c -6.756185,0 -12.26952,5.51336 -12.269531,12.26953 -1.5e-5,6.75621 5.513331,12.26758 12.269531,12.26758 4.869497,0 9.079507,-2.86912 11.058597,-6.99805 h -3.875 c -1.61783,2.20732 -4.221804,3.64063 -7.183597,3.64063 -4.940319,0 -8.910167,-3.96982 -8.910156,-8.91016 7e-6,-4.94029 3.969849,-8.91015 8.910156,-8.91015 2.954736,0 5.553177,1.42665 7.171877,3.625 h 3.8789 c -1.98227,-4.12044 -6.18749,-6.98438 -11.050777,-6.98438 z"
         style="color:#000000;font-style:normal;font-variant:normal;font-weight:normal;font-stretch:normal;font-size:medium;line-height:normal;font-family:sans-serif;font-variant-ligatures:normal;font-variant-position:normal;font-variant-caps:normal;font-variant-numeric:normal;font-variant-alternates:normal;font-feature-settings:normal;text-indent:0;text-align:start;text-decoration:none;text-decoration-line:none;text-decoration-style:solid;text-decoration-color:#000000;letter-spacing:normal;word-spacing:normal;text-transform:none;writing-mode:lr-tb;direction:ltr;text-orientation:mixed;dominant-baseline:auto;baseline-shift:baseline;text-anchor:start;white-space:normal;shape-padding:0;clip-rule:nonzero;display:inline;overflow:visible;visibility:visible;opacity:1;isolation:auto;mix-blend-mode:normal;color-interpolation:sRGB;color-interpolation-filters:linearRGB;solid-color:#000000;solid-opacity:1;vector-effect:none;fill:#ff9600;fill-opacity:1;fill-rule:nonzero;stroke:none;stroke-width:3.3599999;stroke-linecap:round;stroke-linejoin:round;stroke-miterlimit:4;stroke-dasharray:none;stroke-dashoffset:0;stroke-opacity:1;color-rendering:auto;image-rendering:auto;shape-rendering:auto;text-rendering:auto;enable-background:accumulate"
         inkscape:connector-curvature="0" />
      <path
         id="path4967-5-6"
         d="m -13.073277,106.50118 a 2.801724,2.8017247 0 0 1 -2.801724,2.80173 2.801724,2.8017247 0 0 1 -2.801724,-2.80173 2.801724,2.8017247 0 0 1 2.801724,-2.80172 2.801724,2.8017247 0 0 1 2.801724,2.80172 z"
         style="fill:none;fill-opacity:1;stroke:#ff9600;stroke-width:0.89655179;stroke-linecap:round;stroke-linejoin:round;stroke-miterlimit:4;stroke-dasharray:none;stroke-opacity:1"
         transform="scale(-1,1)"
         inkscape:connector-curvature="0" />
      <path
         id="path5013"
         d="m -23.812502,106.5216 a 1.5875,1.5875 0 0 1 -1.5875,1.5875 1.5875,1.5875 0 0 1 -1.5875,-1.5875 1.5875,1.5875 0 0 1 1.5875,-1.5875 1.5875,1.5875 0 0 1 1.5875,1.5875 z"
         style="fill:#ff9600;fill-opacity:1;stroke:none;stroke-width:0;stroke-linecap:round;stroke-linejoin:round;stroke-miterlimit:4;stroke-dasharray:none;stroke-opacity:1"
         transform="scale(-1,1)"
         inkscape:connector-curvature="0" />
      <path
         inkscape:connector-curvature="0"
         id="path5098"
         d="m 25.4,106.49998 h 6.350001"
         style="fill:none;stroke:#ff9600;stroke-width:0.889;stroke-linecap:butt;stroke-linejoin:miter;stroke-miterlimit:4;stroke-dasharray:none;stroke-opacity:1" />
      <path
         inkscape:connector-curvature="0"
         id="path5098-3"
         d="m 19.050001,106.49998 h 3.175"
         style="fill:none;stroke:#ff9600;stroke-width:0.889;stroke-linecap:butt;stroke-linejoin:miter;stroke-miterlimit:4;stroke-dasharray:none;stroke-opacity:1" />
    </g>
  </g>
</svg>
