M48
;Layer_Color=9474304
;FILE_FORMAT=2:5
INCH,LZ
;TYPE=PLATED
T1F00S00C0.01500
T2F00S00C0.03000
T3F00S00C0.03150
T4F00S00C0.03346
T5F00S00C0.03543
T6F00S00C0.03937
T7F00S00C0.05906
%
T01
X00055Y-0126142
X002Y-01
X003Y-008
Y-004
X0046935Y-0142
X0052
X0057
X0062
X0086Y-0136
X009Y-0126
X0102771Y-0115032
X0114895
X011Y-012
X0116Y-0138
X0122
X0128
X013501Y-0128355
X015Y-012
X017
X019
X0188198Y-0128355
X018Y-01
Y-006
X016
X014
X012
Y-0073
X01302Y-00817
X012Y-01
X0094Y-0096981
X01Y-006
X008
X0063937Y-0062837
X00564Y-00642
X007Y-004
X01238Y-0049
X0164036Y-0035
X0174Y-0042
X0199Y-005
X016Y-014
X0128Y-002
X0113515Y-0024977
X01Y-002
X0201Y-0023
X0195668Y-0009561
X0056063Y-0025547
X00199Y-00139
X0006302Y-0006802
T02
X01075Y-0077
Y-0057315
X008Y-0041685
Y-0022
T03
X01972Y-0092637
Y-0084763
T04
X010125Y-01275
X011125Y-01275
T05
X0015Y-0114
X0025
X0035
X0045
X0055898Y-011
Y-013
X0045Y-0084
X0035
X0025
X0015
Y-0059
X0025
X0035
X0045
X0058Y-0079
X0068
X0078
Y-0099
X0068
X0058
X0066Y-011
X0076
Y-013
X0066
X0149Y-0047
Y-0037
X0179
Y-0047
Y-0027
Y-0017
X0149
Y-0027
X0045Y-0029
X0035
X0025
X0015
T06
X0005Y-0145
X0015
X0025
X00775
X00875
X00975
X01075
X01175
X01275
X01375
X0167
X0177
X0197
X0207
X0115Y-0005
X0105
X0095
T07
X0007565Y-00714
X002725
X0046935
X0086565Y-01064
X010625
X0125935
X0165565Y-00714
X018525
X0204935
M30
