G04*
G04 #@! TF.GenerationSoftware,Altium Limited,Altium Designer,18.1.6 (161)*
G04*
G04 Layer_Color=8421504*
%FSLAX25Y25*%
%MOIN*%
G70*
G01*
G75*
%ADD16R,0.04724X0.04724*%
%ADD17R,0.03347X0.03347*%
%ADD18R,0.03347X0.03347*%
D16*
X60000Y-45602D02*
D03*
X63937Y-58398D02*
D03*
X56063D02*
D03*
X16000Y-6602D02*
D03*
X19937Y-19398D02*
D03*
X12063D02*
D03*
D17*
X154000Y-81949D02*
D03*
Y-88051D02*
D03*
X161000Y-81898D02*
D03*
Y-88000D02*
D03*
X168000Y-81949D02*
D03*
Y-88051D02*
D03*
X175000Y-88000D02*
D03*
Y-81898D02*
D03*
X182000Y-88000D02*
D03*
Y-81898D02*
D03*
X22000Y-123949D02*
D03*
Y-130051D02*
D03*
X32800Y-130003D02*
D03*
Y-123900D02*
D03*
X43800D02*
D03*
Y-130003D02*
D03*
X4700Y-89400D02*
D03*
Y-95502D02*
D03*
X11000Y-123949D02*
D03*
Y-130051D02*
D03*
X4500Y-111749D02*
D03*
Y-117851D02*
D03*
X50000Y-20051D02*
D03*
Y-13949D02*
D03*
X34500Y-19949D02*
D03*
Y-13847D02*
D03*
X27000Y-20000D02*
D03*
Y-13898D02*
D03*
X42500Y-13847D02*
D03*
Y-19949D02*
D03*
X58000Y-20051D02*
D03*
Y-13949D02*
D03*
D18*
X194051Y-45602D02*
D03*
X187949D02*
D03*
Y-38000D02*
D03*
X194051D02*
D03*
X187949Y-16000D02*
D03*
X194051D02*
D03*
Y-30000D02*
D03*
X187949D02*
D03*
X194051Y-23000D02*
D03*
X187949D02*
D03*
Y-53902D02*
D03*
X194051D02*
D03*
X187949Y-61000D02*
D03*
X194051D02*
D03*
X132949Y-15600D02*
D03*
X139051D02*
D03*
X139000Y-24000D02*
D03*
X132898D02*
D03*
X139000Y-33000D02*
D03*
X132898D02*
D03*
Y-41000D02*
D03*
X139000D02*
D03*
X132898Y-49000D02*
D03*
X139000D02*
D03*
X128051Y-127500D02*
D03*
X121949D02*
D03*
M02*
