G04*
G04 #@! TF.GenerationSoftware,Altium Limited,Altium Designer,19.0.10 (269)*
G04*
G04 Layer_Physical_Order=2*
G04 Layer_Color=16711680*
%FSLAX25Y25*%
%MOIN*%
G70*
G01*
G75*
%ADD11C,0.01000*%
%ADD41C,0.02500*%
%ADD42C,0.08661*%
%ADD43R,0.05543X0.05543*%
%ADD44C,0.05543*%
%ADD45C,0.05906*%
%ADD46C,0.07874*%
G04:AMPARAMS|DCode=47|XSize=78.74mil|YSize=78.74mil|CornerRadius=19.68mil|HoleSize=0mil|Usage=FLASHONLY|Rotation=0.000|XOffset=0mil|YOffset=0mil|HoleType=Round|Shape=RoundedRectangle|*
%AMROUNDEDRECTD47*
21,1,0.07874,0.03937,0,0,0.0*
21,1,0.03937,0.07874,0,0,0.0*
1,1,0.03937,0.01968,-0.01968*
1,1,0.03937,-0.01968,-0.01968*
1,1,0.03937,-0.01968,0.01968*
1,1,0.03937,0.01968,0.01968*
%
%ADD47ROUNDEDRECTD47*%
%ADD48C,0.06000*%
%ADD49R,0.05906X0.05906*%
%ADD50R,0.05906X0.05906*%
%ADD51C,0.03000*%
G36*
X210000Y-68452D02*
X209500Y-68593D01*
X208737Y-67598D01*
X208579Y-67477D01*
X208227Y-67122D01*
X207455Y-66264D01*
X207162Y-65895D01*
X206918Y-65551D01*
X206729Y-65245D01*
X206594Y-64980D01*
X206509Y-64764D01*
X206468Y-64604D01*
X206464Y-64561D01*
Y-54935D01*
X206348Y-54350D01*
X206016Y-53854D01*
X201885Y-49722D01*
X201949Y-49400D01*
X201755Y-48425D01*
X201202Y-47598D01*
X200376Y-47045D01*
X199400Y-46851D01*
X198424Y-47045D01*
X197598Y-47598D01*
X197045Y-48425D01*
X196851Y-49400D01*
X197045Y-50375D01*
X197598Y-51202D01*
X198424Y-51755D01*
X199400Y-51949D01*
X199722Y-51885D01*
X203406Y-55568D01*
Y-64561D01*
X203402Y-64604D01*
X203361Y-64764D01*
X203276Y-64980D01*
X203141Y-65245D01*
X202952Y-65551D01*
X202721Y-65877D01*
X201636Y-67129D01*
X201291Y-67477D01*
X201133Y-67598D01*
X200279Y-68712D01*
X199741Y-70008D01*
X199558Y-71400D01*
X199741Y-72792D01*
X200279Y-74088D01*
X201133Y-75202D01*
X202247Y-76056D01*
X203543Y-76594D01*
X204935Y-76777D01*
X206327Y-76594D01*
X207623Y-76056D01*
X208737Y-75202D01*
X209500Y-74208D01*
X210000Y-74348D01*
Y-140245D01*
X209507Y-140532D01*
X209234Y-140397D01*
X209120Y-139822D01*
X208622Y-139078D01*
X202494Y-132950D01*
Y-131167D01*
X202555Y-131076D01*
X202749Y-130100D01*
X202555Y-129124D01*
X202002Y-128298D01*
X201175Y-127745D01*
X200200Y-127551D01*
X199224Y-127745D01*
X198398Y-128298D01*
X197845Y-129124D01*
X197651Y-130100D01*
X197845Y-131076D01*
X197906Y-131167D01*
Y-133900D01*
X198081Y-134778D01*
X198578Y-135522D01*
X203808Y-140752D01*
X203775Y-141251D01*
X203479Y-141479D01*
X202688Y-142510D01*
X202526Y-142900D01*
X202449Y-142915D01*
X201895Y-142518D01*
X201861Y-142256D01*
X201561Y-141534D01*
X201086Y-140914D01*
X200466Y-140438D01*
X199743Y-140139D01*
X198969Y-140037D01*
X195031D01*
X194256Y-140139D01*
X193534Y-140438D01*
X192914Y-140914D01*
X192438Y-141534D01*
X192139Y-142256D01*
X192037Y-143032D01*
Y-146968D01*
X192107Y-147500D01*
X191754Y-148000D01*
X181486D01*
X181265Y-147552D01*
X181313Y-147490D01*
X181810Y-146289D01*
X181914Y-145500D01*
X177000D01*
Y-145000D01*
X176500D01*
Y-140086D01*
X175711Y-140190D01*
X174510Y-140688D01*
X173479Y-141479D01*
X172687Y-142510D01*
X172526Y-142900D01*
X172449Y-142915D01*
X171895Y-142518D01*
X171861Y-142256D01*
X171562Y-141534D01*
X171086Y-140914D01*
X170466Y-140438D01*
X169744Y-140139D01*
X168968Y-140037D01*
X165032D01*
X164257Y-140139D01*
X163534Y-140438D01*
X162914Y-140914D01*
X162864Y-140980D01*
X162396Y-140768D01*
X162450Y-140500D01*
X160500D01*
Y-142449D01*
X160976Y-142355D01*
X161780Y-141817D01*
X161817Y-141825D01*
X162183Y-142152D01*
X162139Y-142256D01*
X162037Y-143032D01*
Y-146968D01*
X162107Y-147500D01*
X161754Y-148000D01*
X141986D01*
X141765Y-147552D01*
X141813Y-147490D01*
X142310Y-146289D01*
X142414Y-145500D01*
X137500D01*
Y-145000D01*
X137000D01*
Y-141524D01*
X133563Y-144961D01*
X133554Y-144547D01*
X133520Y-144150D01*
X133459Y-143770D01*
X133372Y-143407D01*
X133259Y-143060D01*
X133121Y-142729D01*
X133107Y-142704D01*
X132771Y-143517D01*
X132229D01*
X131813Y-142510D01*
X131021Y-141479D01*
X129990Y-140688D01*
X129546Y-140504D01*
X129497Y-140006D01*
X129802Y-139802D01*
X130355Y-138976D01*
X130449Y-138500D01*
X128000D01*
Y-137500D01*
X130449D01*
X130355Y-137024D01*
X130161Y-136735D01*
X130397Y-136294D01*
X176250D01*
X177128Y-136119D01*
X177872Y-135622D01*
X185187Y-128307D01*
X185681Y-128520D01*
X185843Y-129330D01*
X186395Y-130157D01*
X187222Y-130710D01*
X187698Y-130805D01*
Y-128355D01*
X188198D01*
Y-127855D01*
X190647D01*
X190552Y-127380D01*
X190000Y-126552D01*
X189173Y-126000D01*
X188444Y-125855D01*
X188159Y-125578D01*
X188116Y-125319D01*
X188274Y-124525D01*
X188080Y-123549D01*
X187527Y-122723D01*
X186700Y-122170D01*
X185725Y-121976D01*
X184749Y-122170D01*
X183923Y-122723D01*
X183370Y-123549D01*
X183349Y-123657D01*
X175300Y-131706D01*
X112732D01*
X112632Y-131206D01*
X113243Y-130953D01*
X114069Y-130319D01*
X114703Y-129494D01*
X115101Y-128532D01*
X115237Y-127500D01*
X115101Y-126468D01*
X114703Y-125507D01*
X114372Y-125076D01*
X114619Y-124576D01*
X180353D01*
X180938Y-124460D01*
X181434Y-124128D01*
X198281Y-107281D01*
X198613Y-106785D01*
X198729Y-106200D01*
Y-97317D01*
X198749Y-97227D01*
X198793Y-97096D01*
X198866Y-96936D01*
X198971Y-96749D01*
X199110Y-96538D01*
X199277Y-96316D01*
X199744Y-95782D01*
X199965Y-95557D01*
X200053Y-95490D01*
X200694Y-94654D01*
X201097Y-93681D01*
X201235Y-92637D01*
X201097Y-91593D01*
X200694Y-90620D01*
X200053Y-89784D01*
X199217Y-89143D01*
X198801Y-88971D01*
Y-88429D01*
X199217Y-88257D01*
X200053Y-87616D01*
X200694Y-86780D01*
X201097Y-85807D01*
X201235Y-84763D01*
X201097Y-83719D01*
X200694Y-82746D01*
X200053Y-81910D01*
X199217Y-81269D01*
X198244Y-80866D01*
X197200Y-80729D01*
X196156Y-80866D01*
X195183Y-81269D01*
X194347Y-81910D01*
X193706Y-82746D01*
X193303Y-83719D01*
X193166Y-84763D01*
X193303Y-85807D01*
X193706Y-86780D01*
X194347Y-87616D01*
X195183Y-88257D01*
X195599Y-88429D01*
Y-88971D01*
X195183Y-89143D01*
X194347Y-89784D01*
X193706Y-90620D01*
X193303Y-91593D01*
X193166Y-92637D01*
X193303Y-93681D01*
X193706Y-94654D01*
X194347Y-95490D01*
X194435Y-95557D01*
X194656Y-95782D01*
X195123Y-96316D01*
X195290Y-96538D01*
X195429Y-96749D01*
X195534Y-96936D01*
X195607Y-97096D01*
X195651Y-97227D01*
X195671Y-97317D01*
Y-105567D01*
X179719Y-121518D01*
X172523D01*
X172287Y-121077D01*
X172355Y-120975D01*
X172450Y-120500D01*
X167551D01*
X167645Y-120975D01*
X167713Y-121077D01*
X167477Y-121518D01*
X152523D01*
X152287Y-121077D01*
X152355Y-120975D01*
X152450Y-120500D01*
X147550D01*
X147645Y-120975D01*
X147713Y-121077D01*
X147477Y-121518D01*
X112523D01*
X112287Y-121077D01*
X112355Y-120975D01*
X112450Y-120500D01*
X107551D01*
X107645Y-120975D01*
X107713Y-121077D01*
X107477Y-121518D01*
X99406D01*
X98821Y-121634D01*
X98324Y-121966D01*
X95819Y-124471D01*
X92203D01*
X92156Y-124461D01*
X92110Y-124447D01*
X92064Y-124429D01*
X92017Y-124406D01*
X91968Y-124376D01*
X91915Y-124339D01*
X91874Y-124305D01*
X91802Y-124198D01*
X90975Y-123645D01*
X90000Y-123451D01*
X89025Y-123645D01*
X88198Y-124198D01*
X87645Y-125024D01*
X87451Y-126000D01*
X87645Y-126976D01*
X88198Y-127802D01*
X89025Y-128355D01*
X90000Y-128549D01*
X90975Y-128355D01*
X91802Y-127802D01*
X91874Y-127695D01*
X91915Y-127661D01*
X91968Y-127624D01*
X92017Y-127594D01*
X92064Y-127571D01*
X92110Y-127553D01*
X92156Y-127539D01*
X92203Y-127529D01*
X96453D01*
X96776Y-127465D01*
X96804Y-127467D01*
X97268Y-127770D01*
X97307Y-127831D01*
X97399Y-128532D01*
X97797Y-129493D01*
X98431Y-130319D01*
X99257Y-130953D01*
X99868Y-131206D01*
X99769Y-131706D01*
X96550D01*
X95222Y-130378D01*
X94478Y-129880D01*
X93600Y-129706D01*
X83500D01*
X82622Y-129880D01*
X81878Y-130378D01*
X80234Y-132022D01*
X79772Y-131831D01*
Y-126228D01*
X72228D01*
Y-133772D01*
X77831D01*
X78022Y-134234D01*
X76550Y-135706D01*
X74000D01*
X73122Y-135880D01*
X72378Y-136378D01*
X65050Y-143706D01*
X64397D01*
X64161Y-143265D01*
X64355Y-142975D01*
X64450Y-142500D01*
X62000D01*
Y-142000D01*
X61500D01*
Y-139550D01*
X61024Y-139645D01*
X60198Y-140198D01*
X59785Y-140816D01*
X59215D01*
X58802Y-140198D01*
X57976Y-139645D01*
X57500Y-139550D01*
Y-142000D01*
X56500D01*
Y-139550D01*
X56024Y-139645D01*
X55198Y-140198D01*
X54785Y-140816D01*
X54216D01*
X53802Y-140198D01*
X52975Y-139645D01*
X52500Y-139550D01*
Y-142000D01*
X51500D01*
Y-139550D01*
X51025Y-139645D01*
X50198Y-140198D01*
X49745Y-140875D01*
X49696Y-140891D01*
X49239D01*
X49190Y-140875D01*
X48737Y-140198D01*
X47910Y-139645D01*
X47435Y-139550D01*
Y-142000D01*
X46935D01*
Y-142500D01*
X44486D01*
X44580Y-142975D01*
X44774Y-143265D01*
X44538Y-143706D01*
X36950D01*
X29622Y-136378D01*
X28878Y-135880D01*
X28000Y-135706D01*
X22000D01*
X21122Y-135880D01*
X20378Y-136378D01*
X17429Y-139327D01*
X17294Y-139431D01*
X17071Y-139574D01*
X16836Y-139698D01*
X16585Y-139803D01*
X16317Y-139890D01*
X16031Y-139958D01*
X15724Y-140007D01*
X15397Y-140036D01*
X15156Y-140041D01*
X15000Y-140020D01*
X13711Y-140190D01*
X12510Y-140688D01*
X11479Y-141479D01*
X10688Y-142510D01*
X10526Y-142900D01*
X10448Y-142915D01*
X9895Y-142518D01*
X9861Y-142256D01*
X9561Y-141534D01*
X9086Y-140914D01*
X8466Y-140438D01*
X7743Y-140139D01*
X6968Y-140037D01*
X3032D01*
X2500Y-140107D01*
X2000Y-139754D01*
Y-73201D01*
X2500Y-73102D01*
X2909Y-74088D01*
X3763Y-75202D01*
X4877Y-76056D01*
X6173Y-76594D01*
X7565Y-76777D01*
X8957Y-76594D01*
X10253Y-76056D01*
X11367Y-75202D01*
X12221Y-74088D01*
X12758Y-72792D01*
X12942Y-71400D01*
X12758Y-70008D01*
X12278Y-68849D01*
X14029Y-67099D01*
X23321D01*
X23482Y-67572D01*
X23448Y-67598D01*
X22594Y-68712D01*
X22057Y-70008D01*
X21873Y-71400D01*
X22057Y-72792D01*
X22594Y-74088D01*
X23448Y-75202D01*
X24562Y-76056D01*
X25858Y-76594D01*
X27250Y-76777D01*
X28642Y-76594D01*
X29938Y-76056D01*
X31052Y-75202D01*
X31906Y-74088D01*
X32443Y-72792D01*
X32627Y-71400D01*
X32443Y-70008D01*
X31906Y-68712D01*
X31052Y-67598D01*
X31018Y-67572D01*
X31179Y-67099D01*
X37385D01*
X37567Y-67372D01*
X38394Y-67924D01*
X39369Y-68118D01*
X40345Y-67924D01*
X41172Y-67372D01*
X41724Y-66545D01*
X41918Y-65569D01*
X41724Y-64594D01*
X41172Y-63767D01*
X40345Y-63214D01*
X39369Y-63020D01*
X38394Y-63214D01*
X37567Y-63767D01*
X37385Y-64040D01*
X13396D01*
X12810Y-64156D01*
X12314Y-64488D01*
X10115Y-66686D01*
X8957Y-66207D01*
X7565Y-66023D01*
X6173Y-66207D01*
X4877Y-66744D01*
X3763Y-67598D01*
X2909Y-68712D01*
X2500Y-69698D01*
X2000Y-69599D01*
Y-2000D01*
X90514D01*
X90735Y-2448D01*
X90688Y-2510D01*
X90190Y-3711D01*
X90020Y-5000D01*
X90190Y-6289D01*
X90688Y-7490D01*
X91479Y-8521D01*
X92510Y-9313D01*
X93711Y-9810D01*
X95000Y-9980D01*
X96289Y-9810D01*
X97490Y-9313D01*
X98521Y-8521D01*
X99313Y-7490D01*
X99729Y-6483D01*
X100271D01*
X100688Y-7490D01*
X101479Y-8521D01*
X102510Y-9313D01*
X103711Y-9810D01*
X105000Y-9980D01*
X106231Y-9817D01*
X106428Y-10019D01*
X106552Y-10204D01*
X105050Y-11706D01*
X101267D01*
X101175Y-11645D01*
X100200Y-11451D01*
X99225Y-11645D01*
X98398Y-12198D01*
X97845Y-13025D01*
X97651Y-14000D01*
X97845Y-14976D01*
X98398Y-15802D01*
X99225Y-16355D01*
X100200Y-16549D01*
X101175Y-16355D01*
X101267Y-16294D01*
X106000D01*
X106878Y-16119D01*
X107622Y-15622D01*
X113282Y-9963D01*
X116969D01*
X117744Y-9861D01*
X118466Y-9561D01*
X119086Y-9086D01*
X119562Y-8466D01*
X119861Y-7743D01*
X119963Y-6968D01*
Y-3032D01*
X119893Y-2500D01*
X120246Y-2000D01*
X210000D01*
Y-68452D01*
D02*
G37*
G36*
X205460Y-64777D02*
X205536Y-65077D01*
X205663Y-65399D01*
X205840Y-65746D01*
X206068Y-66115D01*
X206346Y-66507D01*
X206676Y-66922D01*
X207486Y-67822D01*
X207966Y-68307D01*
X201904D01*
X202384Y-67822D01*
X203524Y-66507D01*
X203802Y-66115D01*
X204030Y-65746D01*
X204207Y-65399D01*
X204334Y-65077D01*
X204410Y-64777D01*
X204435Y-64500D01*
X205435D01*
X205460Y-64777D01*
D02*
G37*
G36*
X198996Y-95088D02*
X198484Y-95674D01*
X198276Y-95951D01*
X198100Y-96218D01*
X197956Y-96474D01*
X197844Y-96720D01*
X197764Y-96955D01*
X197716Y-97180D01*
X197700Y-97395D01*
X196700D01*
X196684Y-97180D01*
X196636Y-96955D01*
X196556Y-96720D01*
X196444Y-96474D01*
X196300Y-96218D01*
X196124Y-95951D01*
X195916Y-95674D01*
X195404Y-95088D01*
X195100Y-94779D01*
X199300D01*
X198996Y-95088D01*
D02*
G37*
G36*
X91181Y-125055D02*
X91293Y-125148D01*
X91409Y-125231D01*
X91529Y-125302D01*
X91651Y-125363D01*
X91777Y-125412D01*
X91907Y-125451D01*
X92039Y-125478D01*
X92175Y-125495D01*
X92314Y-125500D01*
Y-126500D01*
X92175Y-126505D01*
X92039Y-126522D01*
X91907Y-126549D01*
X91777Y-126588D01*
X91651Y-126637D01*
X91529Y-126698D01*
X91409Y-126769D01*
X91293Y-126852D01*
X91181Y-126945D01*
X91071Y-127050D01*
Y-124950D01*
X91181Y-125055D01*
D02*
G37*
G36*
X86339Y-137461D02*
X86187Y-137500D01*
X85903Y-137595D01*
X85769Y-137651D01*
X85642Y-137714D01*
X85520Y-137782D01*
X85405Y-137855D01*
X85296Y-137935D01*
X85192Y-138021D01*
X85095Y-138112D01*
X84205Y-137588D01*
X84301Y-137483D01*
X84384Y-137374D01*
X84453Y-137261D01*
X84508Y-137144D01*
X84549Y-137024D01*
X84576Y-136900D01*
X84590Y-136773D01*
X84589Y-136641D01*
X84574Y-136507D01*
X84546Y-136368D01*
X86339Y-137461D01*
D02*
G37*
G36*
X81878Y-141329D02*
X81718Y-141496D01*
X81470Y-141800D01*
X81382Y-141936D01*
X81319Y-142062D01*
X81280Y-142178D01*
X81265Y-142284D01*
X81274Y-142379D01*
X81307Y-142464D01*
X81365Y-142539D01*
X79961Y-141135D01*
X80036Y-141193D01*
X80121Y-141226D01*
X80216Y-141235D01*
X80322Y-141220D01*
X80438Y-141181D01*
X80564Y-141118D01*
X80700Y-141030D01*
X80847Y-140918D01*
X81004Y-140782D01*
X81171Y-140622D01*
X81878Y-141329D01*
D02*
G37*
G36*
X93978Y-135622D02*
X94722Y-136119D01*
X95600Y-136294D01*
X113603D01*
X113839Y-136735D01*
X113645Y-137024D01*
X113550Y-137500D01*
X116000D01*
Y-138500D01*
X113550D01*
X113645Y-138976D01*
X114198Y-139802D01*
X114826Y-140223D01*
X114866Y-140322D01*
X114870Y-140779D01*
X114862Y-140802D01*
X113979Y-141479D01*
X113188Y-142510D01*
X112771Y-143517D01*
X112229D01*
X111812Y-142510D01*
X111021Y-141479D01*
X109990Y-140688D01*
X108789Y-140190D01*
X107500Y-140020D01*
X106211Y-140190D01*
X105010Y-140688D01*
X103979Y-141479D01*
X103188Y-142510D01*
X102771Y-143517D01*
X102229D01*
X101893Y-142704D01*
X101879Y-142729D01*
X101741Y-143060D01*
X101628Y-143407D01*
X101541Y-143770D01*
X101480Y-144150D01*
X101446Y-144547D01*
X101437Y-144961D01*
X98000Y-141524D01*
Y-145000D01*
X97000D01*
Y-140086D01*
X96211Y-140190D01*
X95010Y-140688D01*
X93979Y-141479D01*
X93187Y-142510D01*
X92771Y-143517D01*
X92229D01*
X91812Y-142510D01*
X91021Y-141479D01*
X89990Y-140688D01*
X88789Y-140190D01*
X87500Y-140020D01*
X86211Y-140190D01*
X85010Y-140688D01*
X83979Y-141479D01*
X83188Y-142510D01*
X83026Y-142900D01*
X82948Y-142915D01*
X82395Y-142518D01*
X82368Y-142312D01*
X82445Y-142218D01*
X85924Y-138739D01*
X85981Y-138698D01*
X86045Y-138656D01*
X86115Y-138617D01*
X86191Y-138580D01*
X86263Y-138550D01*
X86476Y-138479D01*
X86592Y-138449D01*
X86655Y-138419D01*
X86976Y-138355D01*
X87802Y-137802D01*
X88355Y-136976D01*
X88549Y-136000D01*
X88355Y-135024D01*
X88161Y-134735D01*
X88397Y-134294D01*
X92650D01*
X93978Y-135622D01*
D02*
G37*
G36*
X20194Y-141574D02*
X19951Y-141838D01*
X19735Y-142118D01*
X19544Y-142415D01*
X19379Y-142729D01*
X19241Y-143060D01*
X19128Y-143407D01*
X19041Y-143770D01*
X18980Y-144150D01*
X18946Y-144547D01*
X18937Y-144961D01*
X15039Y-141063D01*
X15453Y-141054D01*
X15850Y-141020D01*
X16230Y-140959D01*
X16593Y-140872D01*
X16940Y-140759D01*
X17271Y-140621D01*
X17585Y-140456D01*
X17882Y-140265D01*
X18162Y-140049D01*
X18426Y-139806D01*
X20194Y-141574D01*
D02*
G37*
%LPC*%
G36*
X6802Y-4353D02*
Y-6302D01*
X8752D01*
X8657Y-5827D01*
X8105Y-5000D01*
X7278Y-4447D01*
X6802Y-4353D01*
D02*
G37*
G36*
X5802D02*
X5327Y-4447D01*
X4500Y-5000D01*
X3947Y-5827D01*
X3853Y-6302D01*
X5802D01*
Y-4353D01*
D02*
G37*
G36*
X196168Y-7112D02*
Y-9061D01*
X198117D01*
X198023Y-8586D01*
X197470Y-7759D01*
X196643Y-7207D01*
X196168Y-7112D01*
D02*
G37*
G36*
X195168D02*
X194693Y-7207D01*
X193866Y-7759D01*
X193313Y-8586D01*
X193218Y-9061D01*
X195168D01*
Y-7112D01*
D02*
G37*
G36*
X8752Y-7302D02*
X6802D01*
Y-9252D01*
X7278Y-9157D01*
X8105Y-8605D01*
X8657Y-7778D01*
X8752Y-7302D01*
D02*
G37*
G36*
X5802D02*
X3853D01*
X3947Y-7778D01*
X4500Y-8605D01*
X5327Y-9157D01*
X5802Y-9252D01*
Y-7302D01*
D02*
G37*
G36*
X198117Y-10062D02*
X196168D01*
Y-12011D01*
X196643Y-11916D01*
X197470Y-11364D01*
X198023Y-10537D01*
X198117Y-10062D01*
D02*
G37*
G36*
X195168D02*
X193218D01*
X193313Y-10537D01*
X193866Y-11364D01*
X194693Y-11916D01*
X195168Y-12011D01*
Y-10062D01*
D02*
G37*
G36*
X68700Y-13150D02*
X68225Y-13245D01*
X67398Y-13798D01*
X66860Y-14602D01*
X66701Y-14625D01*
X66499D01*
X66340Y-14602D01*
X65802Y-13798D01*
X64976Y-13245D01*
X64500Y-13150D01*
Y-15600D01*
Y-18049D01*
X64976Y-17955D01*
X65802Y-17402D01*
X66340Y-16598D01*
X66499Y-16576D01*
X66701D01*
X66860Y-16598D01*
X67398Y-17402D01*
X68225Y-17955D01*
X68700Y-18049D01*
Y-15600D01*
Y-13150D01*
D02*
G37*
G36*
X69700D02*
Y-15100D01*
X71649D01*
X71555Y-14625D01*
X71002Y-13798D01*
X70175Y-13245D01*
X69700Y-13150D01*
D02*
G37*
G36*
X63500D02*
X63024Y-13245D01*
X62198Y-13798D01*
X61645Y-14625D01*
X61550Y-15100D01*
X63500D01*
Y-13150D01*
D02*
G37*
G36*
X71649Y-16100D02*
X69700D01*
Y-18049D01*
X70175Y-17955D01*
X71002Y-17402D01*
X71555Y-16576D01*
X71649Y-16100D01*
D02*
G37*
G36*
X63500D02*
X61550D01*
X61645Y-16576D01*
X62198Y-17402D01*
X63024Y-17955D01*
X63500Y-18049D01*
Y-16100D01*
D02*
G37*
G36*
X100500Y-17550D02*
Y-19500D01*
X102450D01*
X102355Y-19025D01*
X101802Y-18198D01*
X100976Y-17645D01*
X100500Y-17550D01*
D02*
G37*
G36*
X99500D02*
X99024Y-17645D01*
X98198Y-18198D01*
X97645Y-19025D01*
X97550Y-19500D01*
X99500D01*
Y-17550D01*
D02*
G37*
G36*
X179000Y-13013D02*
X177968Y-13149D01*
X177007Y-13547D01*
X176181Y-14181D01*
X175547Y-15007D01*
X175149Y-15968D01*
X175013Y-17000D01*
X175149Y-18032D01*
X175547Y-18993D01*
X176181Y-19819D01*
X177007Y-20453D01*
X177164Y-20518D01*
X177064Y-21018D01*
X153426D01*
X152953Y-20953D01*
X152953Y-20518D01*
Y-13047D01*
X145047D01*
X145047Y-20953D01*
X144574Y-21018D01*
X131181D01*
X130639Y-20476D01*
X130613Y-20437D01*
X130590Y-20394D01*
X130570Y-20349D01*
X130553Y-20299D01*
X130540Y-20243D01*
X130529Y-20180D01*
X130524Y-20127D01*
X130549Y-20000D01*
X130355Y-19025D01*
X129802Y-18198D01*
X128975Y-17645D01*
X128000Y-17451D01*
X127024Y-17645D01*
X126198Y-18198D01*
X125645Y-19025D01*
X125451Y-20000D01*
X125645Y-20976D01*
X126198Y-21802D01*
X127024Y-22355D01*
X128000Y-22549D01*
X128127Y-22524D01*
X128180Y-22529D01*
X128243Y-22539D01*
X128299Y-22554D01*
X128349Y-22570D01*
X128394Y-22590D01*
X128436Y-22613D01*
X128476Y-22639D01*
X129466Y-23629D01*
X129962Y-23960D01*
X130547Y-24077D01*
X145631D01*
X145877Y-24577D01*
X145547Y-25007D01*
X145149Y-25968D01*
X145013Y-27000D01*
X145149Y-28032D01*
X145547Y-28993D01*
X146181Y-29819D01*
X147007Y-30453D01*
X147968Y-30851D01*
X149000Y-30987D01*
X150032Y-30851D01*
X150993Y-30453D01*
X151819Y-29819D01*
X152453Y-28993D01*
X152851Y-28032D01*
X152987Y-27000D01*
X152851Y-25968D01*
X152453Y-25007D01*
X152123Y-24577D01*
X152369Y-24077D01*
X175631D01*
X175877Y-24577D01*
X175547Y-25007D01*
X175149Y-25968D01*
X175013Y-27000D01*
X175149Y-28032D01*
X175547Y-28993D01*
X176181Y-29819D01*
X177007Y-30453D01*
X177968Y-30851D01*
X179000Y-30987D01*
X180032Y-30851D01*
X180993Y-30453D01*
X181819Y-29819D01*
X182453Y-28993D01*
X182851Y-28032D01*
X182987Y-27000D01*
X182851Y-25968D01*
X182453Y-25007D01*
X182123Y-24577D01*
X182369Y-24077D01*
X198694D01*
X198707Y-24080D01*
X198714Y-24083D01*
X198714Y-24083D01*
X198721Y-24090D01*
X198732Y-24106D01*
X198734Y-24108D01*
X198775Y-24182D01*
X198808Y-24219D01*
X199198Y-24802D01*
X200025Y-25355D01*
X201000Y-25549D01*
X201975Y-25355D01*
X202802Y-24802D01*
X203355Y-23976D01*
X203549Y-23000D01*
X203355Y-22025D01*
X202802Y-21198D01*
X201975Y-20645D01*
X201000Y-20451D01*
X200025Y-20645D01*
X199849Y-20762D01*
X199835Y-20766D01*
X199724Y-20822D01*
X199508Y-20915D01*
X199439Y-20940D01*
X199240Y-20994D01*
X199171Y-21008D01*
X199098Y-21018D01*
X180936D01*
X180836Y-20518D01*
X180993Y-20453D01*
X181819Y-19819D01*
X182453Y-18993D01*
X182851Y-18032D01*
X182987Y-17000D01*
X182851Y-15968D01*
X182453Y-15007D01*
X181819Y-14181D01*
X180993Y-13547D01*
X180032Y-13149D01*
X179000Y-13013D01*
D02*
G37*
G36*
X80500Y-18031D02*
Y-21500D01*
X83969D01*
X83897Y-20956D01*
X83494Y-19983D01*
X82853Y-19147D01*
X82017Y-18506D01*
X81044Y-18103D01*
X80500Y-18031D01*
D02*
G37*
G36*
X79500D02*
X78956Y-18103D01*
X77983Y-18506D01*
X77147Y-19147D01*
X76506Y-19983D01*
X76103Y-20956D01*
X76031Y-21500D01*
X79500D01*
Y-18031D01*
D02*
G37*
G36*
X102450Y-20500D02*
X100500D01*
Y-22449D01*
X100976Y-22355D01*
X101802Y-21802D01*
X102355Y-20976D01*
X102450Y-20500D01*
D02*
G37*
G36*
X99500D02*
X97550D01*
X97645Y-20976D01*
X98198Y-21802D01*
X99024Y-22355D01*
X99500Y-22449D01*
Y-20500D01*
D02*
G37*
G36*
X114015Y-22527D02*
Y-24477D01*
X115965D01*
X115870Y-24002D01*
X115318Y-23175D01*
X114491Y-22622D01*
X114015Y-22527D01*
D02*
G37*
G36*
X113015D02*
X112540Y-22622D01*
X111713Y-23175D01*
X111161Y-24002D01*
X111066Y-24477D01*
X113015D01*
Y-22527D01*
D02*
G37*
G36*
X56563Y-23098D02*
Y-25047D01*
X58513D01*
X58418Y-24572D01*
X57865Y-23745D01*
X57038Y-23192D01*
X56563Y-23098D01*
D02*
G37*
G36*
X55563D02*
X55088Y-23192D01*
X54261Y-23745D01*
X53708Y-24572D01*
X53614Y-25047D01*
X55563D01*
Y-23098D01*
D02*
G37*
G36*
X83969Y-22500D02*
X80500D01*
Y-25969D01*
X81044Y-25897D01*
X82017Y-25494D01*
X82853Y-24853D01*
X83494Y-24017D01*
X83897Y-23044D01*
X83969Y-22500D01*
D02*
G37*
G36*
X79500D02*
X76031D01*
X76103Y-23044D01*
X76506Y-24017D01*
X77147Y-24853D01*
X77983Y-25494D01*
X78956Y-25897D01*
X79500Y-25969D01*
Y-22500D01*
D02*
G37*
G36*
X115965Y-25477D02*
X114015D01*
Y-27426D01*
X114491Y-27332D01*
X115318Y-26779D01*
X115870Y-25952D01*
X115965Y-25477D01*
D02*
G37*
G36*
X113015D02*
X111066D01*
X111161Y-25952D01*
X111713Y-26779D01*
X112540Y-27332D01*
X113015Y-27426D01*
Y-25477D01*
D02*
G37*
G36*
X58513Y-26047D02*
X56563D01*
Y-27997D01*
X57038Y-27902D01*
X57865Y-27350D01*
X58418Y-26523D01*
X58513Y-26047D01*
D02*
G37*
G36*
X55563D02*
X53614D01*
X53708Y-26523D01*
X54261Y-27350D01*
X55088Y-27902D01*
X55563Y-27997D01*
Y-26047D01*
D02*
G37*
G36*
X15500Y-25079D02*
Y-28500D01*
X18921D01*
X18851Y-27968D01*
X18453Y-27007D01*
X17819Y-26181D01*
X16993Y-25547D01*
X16032Y-25149D01*
X15500Y-25079D01*
D02*
G37*
G36*
X14500D02*
X13968Y-25149D01*
X13007Y-25547D01*
X12181Y-26181D01*
X11547Y-27007D01*
X11149Y-27968D01*
X11079Y-28500D01*
X14500D01*
Y-25079D01*
D02*
G37*
G36*
X18921Y-29500D02*
X15500D01*
Y-32921D01*
X16032Y-32851D01*
X16993Y-32453D01*
X17819Y-31819D01*
X18453Y-30993D01*
X18851Y-30032D01*
X18921Y-29500D01*
D02*
G37*
G36*
X14500D02*
X11079D01*
X11149Y-30032D01*
X11547Y-30993D01*
X12181Y-31819D01*
X13007Y-32453D01*
X13968Y-32851D01*
X14500Y-32921D01*
Y-29500D01*
D02*
G37*
G36*
X164536Y-32550D02*
Y-34500D01*
X166485D01*
X166391Y-34025D01*
X165838Y-33198D01*
X165011Y-32645D01*
X164536Y-32550D01*
D02*
G37*
G36*
X163536D02*
X163060Y-32645D01*
X162233Y-33198D01*
X161681Y-34025D01*
X161586Y-34500D01*
X163536D01*
Y-32550D01*
D02*
G37*
G36*
X166485Y-35500D02*
X164536D01*
Y-37449D01*
X165011Y-37355D01*
X165838Y-36802D01*
X166391Y-35976D01*
X166485Y-35500D01*
D02*
G37*
G36*
X163536D02*
X161586D01*
X161681Y-35976D01*
X162233Y-36802D01*
X163060Y-37355D01*
X163536Y-37449D01*
Y-35500D01*
D02*
G37*
G36*
X30500Y-37551D02*
Y-39500D01*
X32449D01*
X32355Y-39024D01*
X31802Y-38198D01*
X30975Y-37645D01*
X30500Y-37551D01*
D02*
G37*
G36*
X29500D02*
X29024Y-37645D01*
X28198Y-38198D01*
X27645Y-39024D01*
X27551Y-39500D01*
X29500D01*
Y-37551D01*
D02*
G37*
G36*
X179000Y-33013D02*
X177968Y-33149D01*
X177007Y-33547D01*
X176181Y-34181D01*
X175547Y-35007D01*
X175149Y-35968D01*
X175013Y-37000D01*
X175149Y-38032D01*
X175547Y-38993D01*
X176181Y-39819D01*
X177007Y-40453D01*
X177968Y-40851D01*
X179000Y-40987D01*
X180032Y-40851D01*
X180993Y-40453D01*
X181819Y-39819D01*
X182453Y-38993D01*
X182851Y-38032D01*
X182987Y-37000D01*
X182851Y-35968D01*
X182453Y-35007D01*
X181819Y-34181D01*
X180993Y-33547D01*
X180032Y-33149D01*
X179000Y-33013D01*
D02*
G37*
G36*
X72449Y-40500D02*
X70500D01*
Y-42450D01*
X70976Y-42355D01*
X71802Y-41802D01*
X72355Y-40975D01*
X72449Y-40500D01*
D02*
G37*
G36*
X69500D02*
X67550D01*
X67645Y-40975D01*
X68198Y-41802D01*
X69024Y-42355D01*
X69500Y-42450D01*
Y-40500D01*
D02*
G37*
G36*
X32449D02*
X30500D01*
Y-42450D01*
X30975Y-42355D01*
X31802Y-41802D01*
X32355Y-40975D01*
X32449Y-40500D01*
D02*
G37*
G36*
X29500D02*
X27551D01*
X27645Y-40975D01*
X28198Y-41802D01*
X29024Y-42355D01*
X29500Y-42450D01*
Y-40500D01*
D02*
G37*
G36*
X19900Y-11351D02*
X18925Y-11545D01*
X18098Y-12098D01*
X17545Y-12924D01*
X17351Y-13900D01*
X17545Y-14875D01*
X18098Y-15702D01*
X18205Y-15774D01*
X18239Y-15815D01*
X18276Y-15868D01*
X18306Y-15917D01*
X18329Y-15964D01*
X18347Y-16010D01*
X18361Y-16056D01*
X18371Y-16103D01*
Y-17900D01*
X18487Y-18485D01*
X18819Y-18981D01*
X23919Y-24081D01*
X24415Y-24413D01*
X25000Y-24529D01*
X25002Y-24535D01*
X24830Y-25036D01*
X24646Y-25060D01*
X23968Y-25149D01*
X23007Y-25547D01*
X22181Y-26181D01*
X21547Y-27007D01*
X21149Y-27968D01*
X21013Y-29000D01*
X21149Y-30032D01*
X21547Y-30993D01*
X22181Y-31819D01*
X23007Y-32453D01*
X23968Y-32851D01*
X25000Y-32987D01*
X26032Y-32851D01*
X26993Y-32453D01*
X27819Y-31819D01*
X28453Y-30993D01*
X28851Y-30032D01*
X28987Y-29000D01*
X28851Y-27968D01*
X28453Y-27007D01*
X27819Y-26181D01*
X26993Y-25547D01*
X26032Y-25149D01*
X25480Y-25076D01*
X25198Y-25039D01*
X25133Y-24879D01*
X25153Y-24574D01*
X25487Y-24529D01*
X25156Y-24529D01*
Y-24529D01*
X25512Y-24529D01*
X34655D01*
X34682Y-24551D01*
X34664Y-24808D01*
X34536Y-25074D01*
X33968Y-25149D01*
X33007Y-25547D01*
X32181Y-26181D01*
X31547Y-27007D01*
X31149Y-27968D01*
X31013Y-29000D01*
X31149Y-30032D01*
X31547Y-30993D01*
X32181Y-31819D01*
X33007Y-32453D01*
X33968Y-32851D01*
X35000Y-32987D01*
X35107Y-32973D01*
X35415Y-32975D01*
X36107Y-33022D01*
X36375Y-33061D01*
X36616Y-33110D01*
X36817Y-33167D01*
X36978Y-33228D01*
X37099Y-33288D01*
X37174Y-33337D01*
X41919Y-38081D01*
X42415Y-38413D01*
X43000Y-38529D01*
X67446D01*
X67681Y-38970D01*
X67645Y-39024D01*
X67550Y-39500D01*
X72449D01*
X72355Y-39024D01*
X72319Y-38970D01*
X72554Y-38529D01*
X76749D01*
X76996Y-39029D01*
X76506Y-39668D01*
X76103Y-40641D01*
X75965Y-41685D01*
X76103Y-42729D01*
X76506Y-43702D01*
X77147Y-44538D01*
X77983Y-45179D01*
X78956Y-45582D01*
X80000Y-45720D01*
X81044Y-45582D01*
X82017Y-45179D01*
X82459Y-44840D01*
X82549Y-44793D01*
X82891Y-44518D01*
X83194Y-44289D01*
X83765Y-43905D01*
X83995Y-43773D01*
X84206Y-43667D01*
X84384Y-43593D01*
X84527Y-43548D01*
X84615Y-43529D01*
X146209D01*
X146378Y-44029D01*
X146181Y-44181D01*
X145547Y-45007D01*
X145149Y-45968D01*
X145079Y-46500D01*
X152921D01*
X152851Y-45968D01*
X152453Y-45007D01*
X151819Y-44181D01*
X151622Y-44029D01*
X151792Y-43529D01*
X171797D01*
X171844Y-43539D01*
X171890Y-43553D01*
X171936Y-43571D01*
X171983Y-43594D01*
X172032Y-43624D01*
X172085Y-43661D01*
X172126Y-43695D01*
X172198Y-43802D01*
X173024Y-44355D01*
X174000Y-44549D01*
X174976Y-44355D01*
X175802Y-43802D01*
X176355Y-42976D01*
X176549Y-42000D01*
X176355Y-41025D01*
X175802Y-40198D01*
X174976Y-39645D01*
X174000Y-39451D01*
X173024Y-39645D01*
X172198Y-40198D01*
X172126Y-40305D01*
X172085Y-40339D01*
X172032Y-40376D01*
X171983Y-40406D01*
X171936Y-40429D01*
X171890Y-40447D01*
X171844Y-40461D01*
X171797Y-40471D01*
X151792D01*
X151622Y-39971D01*
X151819Y-39819D01*
X152453Y-38993D01*
X152851Y-38032D01*
X152987Y-37000D01*
X152851Y-35968D01*
X152453Y-35007D01*
X151819Y-34181D01*
X150993Y-33547D01*
X150032Y-33149D01*
X149000Y-33013D01*
X147968Y-33149D01*
X147007Y-33547D01*
X146181Y-34181D01*
X146115Y-34266D01*
X145895Y-34483D01*
X145373Y-34939D01*
X145157Y-35101D01*
X144951Y-35236D01*
X144768Y-35338D01*
X144611Y-35409D01*
X144484Y-35452D01*
X144396Y-35471D01*
X43633D01*
X41578Y-33415D01*
X41769Y-32953D01*
X48953D01*
Y-25047D01*
X43559D01*
X43523Y-25023D01*
X43286Y-24823D01*
X40381Y-21919D01*
X39885Y-21587D01*
X39300Y-21471D01*
X25633D01*
X21429Y-17266D01*
Y-16103D01*
X21439Y-16056D01*
X21453Y-16010D01*
X21471Y-15964D01*
X21494Y-15917D01*
X21524Y-15868D01*
X21561Y-15815D01*
X21595Y-15774D01*
X21702Y-15702D01*
X22255Y-14875D01*
X22449Y-13900D01*
X22255Y-12924D01*
X21702Y-12098D01*
X20876Y-11545D01*
X19900Y-11351D01*
D02*
G37*
G36*
X152921Y-47500D02*
X149500D01*
Y-50921D01*
X150032Y-50851D01*
X150993Y-50453D01*
X151819Y-49819D01*
X152453Y-48993D01*
X152851Y-48032D01*
X152921Y-47500D01*
D02*
G37*
G36*
X148500D02*
X145079D01*
X145149Y-48032D01*
X145547Y-48993D01*
X146181Y-49819D01*
X147007Y-50453D01*
X147968Y-50851D01*
X148500Y-50921D01*
Y-47500D01*
D02*
G37*
G36*
X179000Y-43013D02*
X177968Y-43149D01*
X177007Y-43547D01*
X176181Y-44181D01*
X175547Y-45007D01*
X175149Y-45968D01*
X175013Y-47000D01*
X175149Y-48032D01*
X175547Y-48993D01*
X176181Y-49819D01*
X177007Y-50453D01*
X177968Y-50851D01*
X179000Y-50987D01*
X180032Y-50851D01*
X180993Y-50453D01*
X181819Y-49819D01*
X182453Y-48993D01*
X182851Y-48032D01*
X182987Y-47000D01*
X182851Y-45968D01*
X182453Y-45007D01*
X181819Y-44181D01*
X180993Y-43547D01*
X180032Y-43149D01*
X179000Y-43013D01*
D02*
G37*
G36*
X123800Y-46451D02*
X122825Y-46645D01*
X121998Y-47198D01*
X121445Y-48024D01*
X121251Y-49000D01*
X121445Y-49975D01*
X121998Y-50802D01*
X122231Y-50958D01*
X122260Y-50994D01*
X122341Y-51059D01*
X122378Y-51095D01*
X122406Y-51127D01*
X122426Y-51156D01*
X122442Y-51182D01*
X122454Y-51209D01*
X122464Y-51238D01*
X122471Y-51269D01*
Y-58298D01*
X121971Y-58449D01*
X121802Y-58198D01*
X120975Y-57645D01*
X120500Y-57551D01*
Y-60000D01*
Y-62450D01*
X120975Y-62355D01*
X121802Y-61802D01*
X121971Y-61551D01*
X122471Y-61702D01*
Y-71298D01*
X121971Y-71449D01*
X121802Y-71198D01*
X120975Y-70645D01*
X120000Y-70451D01*
X119025Y-70645D01*
X118198Y-71198D01*
X117645Y-72025D01*
X117451Y-73000D01*
X117476Y-73127D01*
X117471Y-73180D01*
X117461Y-73243D01*
X117446Y-73299D01*
X117430Y-73349D01*
X117410Y-73394D01*
X117387Y-73436D01*
X117361Y-73476D01*
X110979Y-79858D01*
X110602Y-79528D01*
X110994Y-79017D01*
X111397Y-78044D01*
X111469Y-77500D01*
X108000D01*
Y-80969D01*
X108544Y-80897D01*
X109517Y-80494D01*
X110028Y-80102D01*
X110358Y-80479D01*
X97424Y-93413D01*
X96838D01*
X96324Y-92899D01*
X95828Y-92568D01*
X95243Y-92452D01*
X87910D01*
X87325Y-92568D01*
X86828Y-92899D01*
X82272Y-97456D01*
X81772Y-97436D01*
Y-95228D01*
X74228D01*
Y-102772D01*
X81772D01*
Y-100529D01*
X82891D01*
X83476Y-100413D01*
X83972Y-100081D01*
X88543Y-95510D01*
X91446D01*
X91681Y-95951D01*
X91645Y-96005D01*
X91451Y-96981D01*
X91645Y-97956D01*
X92163Y-98732D01*
X91883Y-98919D01*
X90320Y-100482D01*
X90286Y-100510D01*
X90144Y-100595D01*
X89932Y-100688D01*
X89649Y-100779D01*
X89298Y-100862D01*
X88905Y-100929D01*
X87252Y-101047D01*
X86763Y-101049D01*
X86565Y-101023D01*
X85173Y-101207D01*
X83877Y-101744D01*
X82763Y-102598D01*
X81909Y-103712D01*
X81371Y-105008D01*
X81188Y-106400D01*
X81371Y-107792D01*
X81909Y-109088D01*
X82763Y-110202D01*
X83877Y-111056D01*
X85173Y-111593D01*
X86565Y-111777D01*
X87957Y-111593D01*
X89253Y-111056D01*
X90367Y-110202D01*
X91221Y-109088D01*
X91759Y-107792D01*
X91942Y-106400D01*
X91916Y-106202D01*
X91918Y-105703D01*
X91978Y-104550D01*
X92032Y-104082D01*
X92103Y-103667D01*
X92186Y-103316D01*
X92277Y-103033D01*
X92370Y-102821D01*
X92455Y-102679D01*
X92483Y-102645D01*
X93599Y-101529D01*
X100600D01*
X101185Y-101413D01*
X101681Y-101081D01*
X113134Y-89629D01*
X186915D01*
X187098Y-89902D01*
X187925Y-90455D01*
X188900Y-90649D01*
X189875Y-90455D01*
X190702Y-89902D01*
X191255Y-89075D01*
X191449Y-88100D01*
X191255Y-87125D01*
X190702Y-86298D01*
X189875Y-85745D01*
X188900Y-85551D01*
X187925Y-85745D01*
X187098Y-86298D01*
X186915Y-86571D01*
X113488D01*
X113297Y-86109D01*
X125081Y-74324D01*
X125413Y-73828D01*
X125529Y-73243D01*
Y-51100D01*
X125540Y-51039D01*
X125556Y-50977D01*
X125578Y-50912D01*
X125605Y-50846D01*
X125639Y-50776D01*
X125680Y-50704D01*
X125730Y-50627D01*
X125805Y-50526D01*
X125846Y-50438D01*
X126155Y-49975D01*
X126349Y-49000D01*
X126155Y-48024D01*
X125602Y-47198D01*
X124776Y-46645D01*
X123800Y-46451D01*
D02*
G37*
G36*
X180500Y-57551D02*
Y-59500D01*
X182449D01*
X182355Y-59025D01*
X181802Y-58198D01*
X180975Y-57645D01*
X180500Y-57551D01*
D02*
G37*
G36*
X179500D02*
X179025Y-57645D01*
X178198Y-58198D01*
X177645Y-59025D01*
X177550Y-59500D01*
X179500D01*
Y-57551D01*
D02*
G37*
G36*
X160500D02*
Y-59500D01*
X162450D01*
X162355Y-59025D01*
X161802Y-58198D01*
X160976Y-57645D01*
X160500Y-57551D01*
D02*
G37*
G36*
X159500D02*
X159025Y-57645D01*
X158198Y-58198D01*
X157645Y-59025D01*
X157551Y-59500D01*
X159500D01*
Y-57551D01*
D02*
G37*
G36*
X140500D02*
Y-59500D01*
X142449D01*
X142355Y-59025D01*
X141802Y-58198D01*
X140975Y-57645D01*
X140500Y-57551D01*
D02*
G37*
G36*
X139500D02*
X139024Y-57645D01*
X138198Y-58198D01*
X137645Y-59025D01*
X137550Y-59500D01*
X139500D01*
Y-57551D01*
D02*
G37*
G36*
X119500D02*
X119025Y-57645D01*
X118198Y-58198D01*
X117645Y-59025D01*
X117551Y-59500D01*
X119500D01*
Y-57551D01*
D02*
G37*
G36*
X100500D02*
Y-59500D01*
X102450D01*
X102355Y-59025D01*
X101802Y-58198D01*
X100976Y-57645D01*
X100500Y-57551D01*
D02*
G37*
G36*
X99500D02*
X99024Y-57645D01*
X98198Y-58198D01*
X97645Y-59025D01*
X97550Y-59500D01*
X99500D01*
Y-57551D01*
D02*
G37*
G36*
X80500D02*
Y-59500D01*
X82450D01*
X82355Y-59025D01*
X81802Y-58198D01*
X80976Y-57645D01*
X80500Y-57551D01*
D02*
G37*
G36*
X79500D02*
X79024Y-57645D01*
X78198Y-58198D01*
X77645Y-59025D01*
X77551Y-59500D01*
X79500D01*
Y-57551D01*
D02*
G37*
G36*
X107500Y-53280D02*
X106456Y-53418D01*
X105483Y-53821D01*
X104647Y-54462D01*
X104006Y-55298D01*
X103603Y-56271D01*
X103465Y-57315D01*
X103603Y-58359D01*
X104006Y-59332D01*
X104647Y-60168D01*
X105483Y-60809D01*
X106456Y-61212D01*
X107500Y-61349D01*
X108544Y-61212D01*
X109517Y-60809D01*
X110353Y-60168D01*
X110994Y-59332D01*
X111397Y-58359D01*
X111535Y-57315D01*
X111397Y-56271D01*
X110994Y-55298D01*
X110353Y-54462D01*
X109517Y-53821D01*
X108544Y-53418D01*
X107500Y-53280D01*
D02*
G37*
G36*
X182449Y-60500D02*
X180500D01*
Y-62450D01*
X180975Y-62355D01*
X181802Y-61802D01*
X182355Y-60975D01*
X182449Y-60500D01*
D02*
G37*
G36*
X179500D02*
X177550D01*
X177645Y-60975D01*
X178198Y-61802D01*
X179025Y-62355D01*
X179500Y-62450D01*
Y-60500D01*
D02*
G37*
G36*
X162450D02*
X160500D01*
Y-62450D01*
X160976Y-62355D01*
X161802Y-61802D01*
X162355Y-60975D01*
X162450Y-60500D01*
D02*
G37*
G36*
X159500D02*
X157551D01*
X157645Y-60975D01*
X158198Y-61802D01*
X159025Y-62355D01*
X159500Y-62450D01*
Y-60500D01*
D02*
G37*
G36*
X142449D02*
X140500D01*
Y-62450D01*
X140975Y-62355D01*
X141802Y-61802D01*
X142355Y-60975D01*
X142449Y-60500D01*
D02*
G37*
G36*
X139500D02*
X137550D01*
X137645Y-60975D01*
X138198Y-61802D01*
X139024Y-62355D01*
X139500Y-62450D01*
Y-60500D01*
D02*
G37*
G36*
X119500D02*
X117551D01*
X117645Y-60975D01*
X118198Y-61802D01*
X119025Y-62355D01*
X119500Y-62450D01*
Y-60500D01*
D02*
G37*
G36*
X102450D02*
X100500D01*
Y-62450D01*
X100976Y-62355D01*
X101802Y-61802D01*
X102355Y-60975D01*
X102450Y-60500D01*
D02*
G37*
G36*
X99500D02*
X97550D01*
X97645Y-60975D01*
X98198Y-61802D01*
X99024Y-62355D01*
X99500Y-62450D01*
Y-60500D01*
D02*
G37*
G36*
X82450D02*
X80500D01*
Y-62450D01*
X80976Y-62355D01*
X81802Y-61802D01*
X82355Y-60975D01*
X82450Y-60500D01*
D02*
G37*
G36*
X79500D02*
X77551D01*
X77645Y-60975D01*
X78198Y-61802D01*
X79024Y-62355D01*
X79500Y-62450D01*
Y-60500D01*
D02*
G37*
G36*
X45000Y-55013D02*
X43968Y-55149D01*
X43007Y-55547D01*
X42181Y-56181D01*
X41547Y-57007D01*
X41149Y-57968D01*
X41013Y-59000D01*
X41149Y-60032D01*
X41547Y-60993D01*
X42181Y-61819D01*
X43007Y-62453D01*
X43968Y-62851D01*
X45000Y-62987D01*
X46032Y-62851D01*
X46993Y-62453D01*
X47819Y-61819D01*
X48453Y-60993D01*
X48851Y-60032D01*
X48987Y-59000D01*
X48851Y-57968D01*
X48453Y-57007D01*
X47819Y-56181D01*
X46993Y-55547D01*
X46032Y-55149D01*
X45000Y-55013D01*
D02*
G37*
G36*
X35000D02*
X33968Y-55149D01*
X33007Y-55547D01*
X32181Y-56181D01*
X31547Y-57007D01*
X31149Y-57968D01*
X31013Y-59000D01*
X31149Y-60032D01*
X31547Y-60993D01*
X32181Y-61819D01*
X33007Y-62453D01*
X33968Y-62851D01*
X35000Y-62987D01*
X36032Y-62851D01*
X36993Y-62453D01*
X37819Y-61819D01*
X38453Y-60993D01*
X38851Y-60032D01*
X38987Y-59000D01*
X38851Y-57968D01*
X38453Y-57007D01*
X37819Y-56181D01*
X36993Y-55547D01*
X36032Y-55149D01*
X35000Y-55013D01*
D02*
G37*
G36*
X25000D02*
X23968Y-55149D01*
X23007Y-55547D01*
X22181Y-56181D01*
X21547Y-57007D01*
X21149Y-57968D01*
X21013Y-59000D01*
X21149Y-60032D01*
X21547Y-60993D01*
X22181Y-61819D01*
X23007Y-62453D01*
X23968Y-62851D01*
X25000Y-62987D01*
X26032Y-62851D01*
X26993Y-62453D01*
X27819Y-61819D01*
X28453Y-60993D01*
X28851Y-60032D01*
X28987Y-59000D01*
X28851Y-57968D01*
X28453Y-57007D01*
X27819Y-56181D01*
X26993Y-55547D01*
X26032Y-55149D01*
X25000Y-55013D01*
D02*
G37*
G36*
X15000D02*
X13968Y-55149D01*
X13007Y-55547D01*
X12181Y-56181D01*
X11547Y-57007D01*
X11149Y-57968D01*
X11013Y-59000D01*
X11149Y-60032D01*
X11547Y-60993D01*
X12181Y-61819D01*
X13007Y-62453D01*
X13968Y-62851D01*
X15000Y-62987D01*
X16032Y-62851D01*
X16993Y-62453D01*
X17819Y-61819D01*
X18453Y-60993D01*
X18851Y-60032D01*
X18987Y-59000D01*
X18851Y-57968D01*
X18453Y-57007D01*
X17819Y-56181D01*
X16993Y-55547D01*
X16032Y-55149D01*
X15000Y-55013D01*
D02*
G37*
G36*
X63937Y-60288D02*
X62962Y-60482D01*
X62135Y-61035D01*
X61582Y-61862D01*
X61388Y-62837D01*
X61582Y-63813D01*
X62135Y-64639D01*
X62242Y-64711D01*
X62276Y-64752D01*
X62313Y-64805D01*
X62343Y-64854D01*
X62366Y-64901D01*
X62384Y-64947D01*
X62398Y-64993D01*
X62408Y-65040D01*
Y-66329D01*
X58391Y-70346D01*
X57929Y-70154D01*
Y-66403D01*
X57939Y-66356D01*
X57953Y-66310D01*
X57971Y-66264D01*
X57994Y-66217D01*
X58024Y-66168D01*
X58061Y-66115D01*
X58095Y-66074D01*
X58202Y-66002D01*
X58755Y-65175D01*
X58949Y-64200D01*
X58755Y-63225D01*
X58202Y-62398D01*
X57376Y-61845D01*
X56400Y-61651D01*
X55424Y-61845D01*
X54598Y-62398D01*
X54045Y-63225D01*
X53851Y-64200D01*
X54045Y-65175D01*
X54598Y-66002D01*
X54705Y-66074D01*
X54739Y-66115D01*
X54776Y-66168D01*
X54806Y-66217D01*
X54829Y-66264D01*
X54847Y-66310D01*
X54861Y-66356D01*
X54871Y-66403D01*
Y-71038D01*
X52353Y-73555D01*
X51929Y-73272D01*
X52128Y-72792D01*
X52246Y-71900D01*
X47435D01*
Y-76711D01*
X48327Y-76594D01*
X48807Y-76394D01*
X49090Y-76818D01*
X43919Y-81990D01*
X43587Y-82486D01*
X43471Y-83072D01*
Y-83196D01*
X43068Y-83249D01*
X42107Y-83647D01*
X41281Y-84281D01*
X40647Y-85107D01*
X40249Y-86068D01*
X40113Y-87100D01*
X40249Y-88132D01*
X40647Y-89093D01*
X41281Y-89919D01*
X42107Y-90553D01*
X43068Y-90951D01*
X44100Y-91087D01*
X45132Y-90951D01*
X46093Y-90553D01*
X46919Y-89919D01*
X47553Y-89093D01*
X47951Y-88132D01*
X48087Y-87100D01*
X47951Y-86068D01*
X47553Y-85107D01*
X46919Y-84281D01*
X46718Y-84127D01*
X46688Y-83546D01*
X50109Y-80126D01*
X50571Y-80317D01*
Y-89467D01*
X40666Y-99371D01*
X30300D01*
X29715Y-99487D01*
X29219Y-99819D01*
X16135Y-112902D01*
X15975Y-113051D01*
X15855Y-113147D01*
X10147D01*
Y-121053D01*
X18053D01*
Y-115347D01*
X18260Y-115103D01*
X30933Y-102429D01*
X41300D01*
X41885Y-102313D01*
X42381Y-101981D01*
X48560Y-95803D01*
X49020Y-96050D01*
X48971Y-96300D01*
Y-124602D01*
X49087Y-125188D01*
X49419Y-125684D01*
X52126Y-128391D01*
Y-133772D01*
X59669D01*
Y-126228D01*
X54289D01*
X52029Y-123969D01*
Y-111824D01*
X52529Y-111724D01*
X52603Y-111902D01*
X53208Y-112690D01*
X53996Y-113294D01*
X54913Y-113675D01*
X55898Y-113804D01*
X56882Y-113675D01*
X57800Y-113294D01*
X58588Y-112690D01*
X59192Y-111902D01*
X59572Y-110985D01*
X59702Y-110000D01*
X59572Y-109015D01*
X59192Y-108098D01*
X58588Y-107310D01*
X57800Y-106705D01*
X56882Y-106325D01*
X55898Y-106196D01*
X54913Y-106325D01*
X53996Y-106705D01*
X53208Y-107310D01*
X52603Y-108098D01*
X52529Y-108276D01*
X52029Y-108176D01*
Y-96934D01*
X53728Y-95235D01*
X54228Y-95442D01*
X54228Y-95640D01*
Y-102772D01*
X61772D01*
Y-95228D01*
X54668D01*
X54442Y-95228D01*
X54234Y-94728D01*
X59081Y-89881D01*
X59413Y-89385D01*
X59529Y-88800D01*
Y-83311D01*
X59545Y-83234D01*
X59583Y-83118D01*
X59646Y-82976D01*
X59737Y-82810D01*
X59857Y-82623D01*
X60002Y-82427D01*
X60416Y-81950D01*
X60614Y-81748D01*
X60690Y-81690D01*
X61295Y-80902D01*
X61675Y-79985D01*
X61804Y-79000D01*
X61675Y-78015D01*
X61295Y-77098D01*
X60690Y-76310D01*
X59902Y-75705D01*
X58985Y-75325D01*
X58507Y-75263D01*
X58328Y-74735D01*
X65018Y-68044D01*
X65350Y-67548D01*
X65466Y-66963D01*
Y-65040D01*
X65476Y-64993D01*
X65490Y-64947D01*
X65508Y-64901D01*
X65531Y-64854D01*
X65561Y-64805D01*
X65598Y-64752D01*
X65632Y-64711D01*
X65739Y-64639D01*
X66292Y-63813D01*
X66486Y-62837D01*
X66292Y-61862D01*
X65739Y-61035D01*
X64912Y-60482D01*
X63937Y-60288D01*
D02*
G37*
G36*
X47435Y-66089D02*
Y-70900D01*
X52246D01*
X52128Y-70008D01*
X51591Y-68712D01*
X50737Y-67598D01*
X49623Y-66744D01*
X48327Y-66207D01*
X47435Y-66089D01*
D02*
G37*
G36*
X46435D02*
X45544Y-66207D01*
X44247Y-66744D01*
X43133Y-67598D01*
X42279Y-68712D01*
X41741Y-70008D01*
X41624Y-70900D01*
X46435D01*
Y-66089D01*
D02*
G37*
G36*
X108000Y-73031D02*
Y-76500D01*
X111469D01*
X111397Y-75956D01*
X110994Y-74983D01*
X110353Y-74147D01*
X109517Y-73506D01*
X108544Y-73103D01*
X108000Y-73031D01*
D02*
G37*
G36*
X107000D02*
X106456Y-73103D01*
X105483Y-73506D01*
X104647Y-74147D01*
X104006Y-74983D01*
X103603Y-75956D01*
X103531Y-76500D01*
X107000D01*
Y-73031D01*
D02*
G37*
G36*
X46435Y-71900D02*
X41624D01*
X41741Y-72792D01*
X42279Y-74088D01*
X43133Y-75202D01*
X44247Y-76056D01*
X45544Y-76594D01*
X46435Y-76711D01*
Y-71900D01*
D02*
G37*
G36*
X185250Y-66023D02*
X183858Y-66207D01*
X182562Y-66744D01*
X181448Y-67598D01*
X180594Y-68712D01*
X180057Y-70008D01*
X179873Y-71400D01*
X180057Y-72792D01*
X180594Y-74088D01*
X181448Y-75202D01*
X182562Y-76056D01*
X183858Y-76594D01*
X185250Y-76777D01*
X186642Y-76594D01*
X187938Y-76056D01*
X189052Y-75202D01*
X189906Y-74088D01*
X190444Y-72792D01*
X190627Y-71400D01*
X190444Y-70008D01*
X189906Y-68712D01*
X189052Y-67598D01*
X187938Y-66744D01*
X186642Y-66207D01*
X185250Y-66023D01*
D02*
G37*
G36*
X165565D02*
X164173Y-66207D01*
X162877Y-66744D01*
X161763Y-67598D01*
X160909Y-68712D01*
X160371Y-70008D01*
X160188Y-71400D01*
X160371Y-72792D01*
X160909Y-74088D01*
X161763Y-75202D01*
X162877Y-76056D01*
X164173Y-76594D01*
X165565Y-76777D01*
X166956Y-76594D01*
X168253Y-76056D01*
X169367Y-75202D01*
X170221Y-74088D01*
X170758Y-72792D01*
X170942Y-71400D01*
X170758Y-70008D01*
X170221Y-68712D01*
X169367Y-67598D01*
X168253Y-66744D01*
X166956Y-66207D01*
X165565Y-66023D01*
D02*
G37*
G36*
X30500Y-77551D02*
Y-79500D01*
X32449D01*
X32355Y-79024D01*
X31802Y-78198D01*
X30975Y-77645D01*
X30500Y-77551D01*
D02*
G37*
G36*
X29500D02*
X29024Y-77645D01*
X28198Y-78198D01*
X27645Y-79024D01*
X27551Y-79500D01*
X29500D01*
Y-77551D01*
D02*
G37*
G36*
X107000Y-77500D02*
X103531D01*
X103603Y-78044D01*
X104006Y-79017D01*
X104647Y-79853D01*
X105483Y-80494D01*
X106456Y-80897D01*
X107000Y-80969D01*
Y-77500D01*
D02*
G37*
G36*
X32449Y-80500D02*
X30500D01*
Y-82450D01*
X30975Y-82355D01*
X31802Y-81802D01*
X32355Y-80976D01*
X32449Y-80500D01*
D02*
G37*
G36*
X29500D02*
X27551D01*
X27645Y-80976D01*
X28198Y-81802D01*
X29024Y-82355D01*
X29500Y-82450D01*
Y-80500D01*
D02*
G37*
G36*
X78000Y-75196D02*
X77015Y-75325D01*
X76098Y-75705D01*
X75310Y-76310D01*
X74705Y-77098D01*
X74325Y-78015D01*
X74196Y-79000D01*
X74325Y-79985D01*
X74705Y-80902D01*
X75310Y-81690D01*
X76098Y-82294D01*
X77015Y-82675D01*
X78000Y-82804D01*
X78985Y-82675D01*
X79902Y-82294D01*
X80690Y-81690D01*
X81295Y-80902D01*
X81675Y-79985D01*
X81804Y-79000D01*
X81675Y-78015D01*
X81295Y-77098D01*
X80690Y-76310D01*
X79902Y-75705D01*
X78985Y-75325D01*
X78000Y-75196D01*
D02*
G37*
G36*
X68000D02*
X67015Y-75325D01*
X66098Y-75705D01*
X65310Y-76310D01*
X64705Y-77098D01*
X64325Y-78015D01*
X64196Y-79000D01*
X64325Y-79985D01*
X64705Y-80902D01*
X65310Y-81690D01*
X66098Y-82294D01*
X67015Y-82675D01*
X68000Y-82804D01*
X68985Y-82675D01*
X69902Y-82294D01*
X70690Y-81690D01*
X71294Y-80902D01*
X71675Y-79985D01*
X71804Y-79000D01*
X71675Y-78015D01*
X71294Y-77098D01*
X70690Y-76310D01*
X69902Y-75705D01*
X68985Y-75325D01*
X68000Y-75196D01*
D02*
G37*
G36*
X34100Y-83113D02*
X33068Y-83249D01*
X32107Y-83647D01*
X31281Y-84281D01*
X30647Y-85107D01*
X30249Y-86068D01*
X30113Y-87100D01*
X30249Y-88132D01*
X30647Y-89093D01*
X31281Y-89919D01*
X32107Y-90553D01*
X33068Y-90951D01*
X34100Y-91087D01*
X35132Y-90951D01*
X36093Y-90553D01*
X36919Y-89919D01*
X37553Y-89093D01*
X37951Y-88132D01*
X38087Y-87100D01*
X37951Y-86068D01*
X37553Y-85107D01*
X36919Y-84281D01*
X36093Y-83647D01*
X35132Y-83249D01*
X34100Y-83113D01*
D02*
G37*
G36*
X24100D02*
X23068Y-83249D01*
X22107Y-83647D01*
X21281Y-84281D01*
X20647Y-85107D01*
X20249Y-86068D01*
X20113Y-87100D01*
X20249Y-88132D01*
X20647Y-89093D01*
X21281Y-89919D01*
X22107Y-90553D01*
X23068Y-90951D01*
X24100Y-91087D01*
X25132Y-90951D01*
X26093Y-90553D01*
X26919Y-89919D01*
X27553Y-89093D01*
X27951Y-88132D01*
X28087Y-87100D01*
X27951Y-86068D01*
X27553Y-85107D01*
X26919Y-84281D01*
X26093Y-83647D01*
X25132Y-83249D01*
X24100Y-83113D01*
D02*
G37*
G36*
X14100D02*
X13068Y-83249D01*
X12107Y-83647D01*
X11281Y-84281D01*
X10647Y-85107D01*
X10249Y-86068D01*
X10113Y-87100D01*
X10249Y-88132D01*
X10647Y-89093D01*
X11281Y-89919D01*
X12107Y-90553D01*
X13068Y-90951D01*
X14100Y-91087D01*
X15132Y-90951D01*
X16093Y-90553D01*
X16919Y-89919D01*
X17553Y-89093D01*
X17951Y-88132D01*
X18087Y-87100D01*
X17951Y-86068D01*
X17553Y-85107D01*
X16919Y-84281D01*
X16093Y-83647D01*
X15132Y-83249D01*
X14100Y-83113D01*
D02*
G37*
G36*
X180500Y-97550D02*
Y-99500D01*
X182449D01*
X182355Y-99024D01*
X181802Y-98198D01*
X180975Y-97645D01*
X180500Y-97550D01*
D02*
G37*
G36*
X179500D02*
X179025Y-97645D01*
X178198Y-98198D01*
X177645Y-99024D01*
X177550Y-99500D01*
X179500D01*
Y-97550D01*
D02*
G37*
G36*
X120500D02*
Y-99500D01*
X122450D01*
X122355Y-99024D01*
X121802Y-98198D01*
X120975Y-97645D01*
X120500Y-97550D01*
D02*
G37*
G36*
X119500D02*
X119025Y-97645D01*
X118198Y-98198D01*
X117645Y-99024D01*
X117551Y-99500D01*
X119500D01*
Y-97550D01*
D02*
G37*
G36*
X20500D02*
Y-99500D01*
X22449D01*
X22355Y-99024D01*
X21802Y-98198D01*
X20976Y-97645D01*
X20500Y-97550D01*
D02*
G37*
G36*
X19500D02*
X19025Y-97645D01*
X18198Y-98198D01*
X17645Y-99024D01*
X17550Y-99500D01*
X19500D01*
Y-97550D01*
D02*
G37*
G36*
X182449Y-100500D02*
X180500D01*
Y-102450D01*
X180975Y-102355D01*
X181802Y-101802D01*
X182355Y-100976D01*
X182449Y-100500D01*
D02*
G37*
G36*
X179500D02*
X177550D01*
X177645Y-100976D01*
X178198Y-101802D01*
X179025Y-102355D01*
X179500Y-102450D01*
Y-100500D01*
D02*
G37*
G36*
X122450D02*
X120500D01*
Y-102450D01*
X120975Y-102355D01*
X121802Y-101802D01*
X122355Y-100976D01*
X122450Y-100500D01*
D02*
G37*
G36*
X119500D02*
X117551D01*
X117645Y-100976D01*
X118198Y-101802D01*
X119025Y-102355D01*
X119500Y-102450D01*
Y-100500D01*
D02*
G37*
G36*
X22449D02*
X20500D01*
Y-102450D01*
X20976Y-102355D01*
X21802Y-101802D01*
X22355Y-100976D01*
X22449Y-100500D01*
D02*
G37*
G36*
X19500D02*
X17550D01*
X17645Y-100976D01*
X18198Y-101802D01*
X19025Y-102355D01*
X19500Y-102450D01*
Y-100500D01*
D02*
G37*
G36*
X71772Y-95228D02*
X64228D01*
Y-102772D01*
X71772D01*
Y-95228D01*
D02*
G37*
G36*
X125935Y-101023D02*
X124543Y-101207D01*
X123247Y-101744D01*
X122133Y-102598D01*
X121279Y-103712D01*
X120741Y-105008D01*
X120558Y-106400D01*
X120741Y-107792D01*
X121279Y-109088D01*
X122133Y-110202D01*
X123247Y-111056D01*
X124543Y-111593D01*
X125935Y-111777D01*
X127327Y-111593D01*
X128623Y-111056D01*
X129737Y-110202D01*
X130591Y-109088D01*
X131129Y-107792D01*
X131312Y-106400D01*
X131129Y-105008D01*
X130591Y-103712D01*
X129737Y-102598D01*
X128623Y-101744D01*
X127327Y-101207D01*
X125935Y-101023D01*
D02*
G37*
G36*
X106250D02*
X104858Y-101207D01*
X103562Y-101744D01*
X102448Y-102598D01*
X101594Y-103712D01*
X101057Y-105008D01*
X100873Y-106400D01*
X101057Y-107792D01*
X101594Y-109088D01*
X102448Y-110202D01*
X103562Y-111056D01*
X104858Y-111593D01*
X106250Y-111777D01*
X107642Y-111593D01*
X108938Y-111056D01*
X110052Y-110202D01*
X110906Y-109088D01*
X111443Y-107792D01*
X111627Y-106400D01*
X111443Y-105008D01*
X110906Y-103712D01*
X110052Y-102598D01*
X108938Y-101744D01*
X107642Y-101207D01*
X106250Y-101023D01*
D02*
G37*
G36*
X76000Y-106196D02*
X75015Y-106325D01*
X74098Y-106705D01*
X73310Y-107310D01*
X72706Y-108098D01*
X72325Y-109015D01*
X72196Y-110000D01*
X72325Y-110985D01*
X72706Y-111902D01*
X73310Y-112690D01*
X74098Y-113294D01*
X75015Y-113675D01*
X76000Y-113804D01*
X76985Y-113675D01*
X77902Y-113294D01*
X78690Y-112690D01*
X79295Y-111902D01*
X79675Y-110985D01*
X79804Y-110000D01*
X79675Y-109015D01*
X79295Y-108098D01*
X78690Y-107310D01*
X77902Y-106705D01*
X76985Y-106325D01*
X76000Y-106196D01*
D02*
G37*
G36*
X66000D02*
X65015Y-106325D01*
X64098Y-106705D01*
X63310Y-107310D01*
X62705Y-108098D01*
X62325Y-109015D01*
X62196Y-110000D01*
X62325Y-110985D01*
X62705Y-111902D01*
X63310Y-112690D01*
X64098Y-113294D01*
X65015Y-113675D01*
X66000Y-113804D01*
X66985Y-113675D01*
X67902Y-113294D01*
X68690Y-112690D01*
X69295Y-111902D01*
X69675Y-110985D01*
X69804Y-110000D01*
X69675Y-109015D01*
X69295Y-108098D01*
X68690Y-107310D01*
X67902Y-106705D01*
X66985Y-106325D01*
X66000Y-106196D01*
D02*
G37*
G36*
X115395Y-112582D02*
Y-114532D01*
X117344D01*
X117250Y-114056D01*
X116697Y-113230D01*
X115870Y-112677D01*
X115395Y-112582D01*
D02*
G37*
G36*
X114395D02*
X113919Y-112677D01*
X113093Y-113230D01*
X112540Y-114056D01*
X112445Y-114532D01*
X114395D01*
Y-112582D01*
D02*
G37*
G36*
X103271D02*
Y-114532D01*
X105220D01*
X105125Y-114056D01*
X104573Y-113230D01*
X103746Y-112677D01*
X103271Y-112582D01*
D02*
G37*
G36*
X102271D02*
X101795Y-112677D01*
X100968Y-113230D01*
X100416Y-114056D01*
X100321Y-114532D01*
X102271D01*
Y-112582D01*
D02*
G37*
G36*
X44600Y-113179D02*
Y-116600D01*
X48021D01*
X47951Y-116068D01*
X47553Y-115107D01*
X46919Y-114281D01*
X46093Y-113647D01*
X45132Y-113249D01*
X44600Y-113179D01*
D02*
G37*
G36*
X43600D02*
X43068Y-113249D01*
X42107Y-113647D01*
X41281Y-114281D01*
X40647Y-115107D01*
X40249Y-116068D01*
X40179Y-116600D01*
X43600D01*
Y-113179D01*
D02*
G37*
G36*
X117344Y-115532D02*
X115395D01*
Y-117481D01*
X115870Y-117387D01*
X116697Y-116834D01*
X117250Y-116007D01*
X117344Y-115532D01*
D02*
G37*
G36*
X114395D02*
X112445D01*
X112540Y-116007D01*
X113093Y-116834D01*
X113919Y-117387D01*
X114395Y-117481D01*
Y-115532D01*
D02*
G37*
G36*
X105220D02*
X103271D01*
Y-117481D01*
X103746Y-117387D01*
X104573Y-116834D01*
X105125Y-116007D01*
X105220Y-115532D01*
D02*
G37*
G36*
X102271D02*
X100321D01*
X100416Y-116007D01*
X100968Y-116834D01*
X101795Y-117387D01*
X102271Y-117481D01*
Y-115532D01*
D02*
G37*
G36*
X190500Y-117551D02*
Y-119500D01*
X192449D01*
X192355Y-119025D01*
X191802Y-118198D01*
X190975Y-117645D01*
X190500Y-117551D01*
D02*
G37*
G36*
X189500D02*
X189024Y-117645D01*
X188198Y-118198D01*
X187645Y-119025D01*
X187550Y-119500D01*
X189500D01*
Y-117551D01*
D02*
G37*
G36*
X170500D02*
Y-119500D01*
X172450D01*
X172355Y-119025D01*
X171802Y-118198D01*
X170975Y-117645D01*
X170500Y-117551D01*
D02*
G37*
G36*
X169500D02*
X169025Y-117645D01*
X168198Y-118198D01*
X167645Y-119025D01*
X167551Y-119500D01*
X169500D01*
Y-117551D01*
D02*
G37*
G36*
X150500D02*
Y-119500D01*
X152450D01*
X152355Y-119025D01*
X151802Y-118198D01*
X150976Y-117645D01*
X150500Y-117551D01*
D02*
G37*
G36*
X149500D02*
X149024Y-117645D01*
X148198Y-118198D01*
X147645Y-119025D01*
X147550Y-119500D01*
X149500D01*
Y-117551D01*
D02*
G37*
G36*
X110500D02*
Y-119500D01*
X112450D01*
X112355Y-119025D01*
X111802Y-118198D01*
X110976Y-117645D01*
X110500Y-117551D01*
D02*
G37*
G36*
X109500D02*
X109025Y-117645D01*
X108198Y-118198D01*
X107645Y-119025D01*
X107551Y-119500D01*
X109500D01*
Y-117551D01*
D02*
G37*
G36*
X48021Y-117600D02*
X44600D01*
Y-121021D01*
X45132Y-120951D01*
X46093Y-120553D01*
X46919Y-119919D01*
X47553Y-119093D01*
X47951Y-118132D01*
X48021Y-117600D01*
D02*
G37*
G36*
X43600D02*
X40179D01*
X40249Y-118132D01*
X40647Y-119093D01*
X41281Y-119919D01*
X42107Y-120553D01*
X43068Y-120951D01*
X43600Y-121021D01*
Y-117600D01*
D02*
G37*
G36*
X34100Y-113113D02*
X33068Y-113249D01*
X32107Y-113647D01*
X31281Y-114281D01*
X30647Y-115107D01*
X30249Y-116068D01*
X30113Y-117100D01*
X30249Y-118132D01*
X30647Y-119093D01*
X31281Y-119919D01*
X32107Y-120553D01*
X33068Y-120951D01*
X34100Y-121087D01*
X35132Y-120951D01*
X36093Y-120553D01*
X36919Y-119919D01*
X37553Y-119093D01*
X37951Y-118132D01*
X38087Y-117100D01*
X37951Y-116068D01*
X37553Y-115107D01*
X36919Y-114281D01*
X36093Y-113647D01*
X35132Y-113249D01*
X34100Y-113113D01*
D02*
G37*
G36*
X24100D02*
X23068Y-113249D01*
X22107Y-113647D01*
X21281Y-114281D01*
X20647Y-115107D01*
X20249Y-116068D01*
X20113Y-117100D01*
X20249Y-118132D01*
X20647Y-119093D01*
X21281Y-119919D01*
X22107Y-120553D01*
X23068Y-120951D01*
X24100Y-121087D01*
X25132Y-120951D01*
X26093Y-120553D01*
X26919Y-119919D01*
X27553Y-119093D01*
X27951Y-118132D01*
X28087Y-117100D01*
X27951Y-116068D01*
X27553Y-115107D01*
X26919Y-114281D01*
X26093Y-113647D01*
X25132Y-113249D01*
X24100Y-113113D01*
D02*
G37*
G36*
X192449Y-120500D02*
X190500D01*
Y-122450D01*
X190975Y-122355D01*
X191802Y-121802D01*
X192355Y-120975D01*
X192449Y-120500D01*
D02*
G37*
G36*
X189500D02*
X187550D01*
X187645Y-120975D01*
X188198Y-121802D01*
X189024Y-122355D01*
X189500Y-122450D01*
Y-120500D01*
D02*
G37*
G36*
X6000Y-123692D02*
Y-125642D01*
X7949D01*
X7855Y-125166D01*
X7302Y-124339D01*
X6475Y-123787D01*
X6000Y-123692D01*
D02*
G37*
G36*
X5000D02*
X4524Y-123787D01*
X3698Y-124339D01*
X3145Y-125166D01*
X3050Y-125642D01*
X5000D01*
Y-123692D01*
D02*
G37*
G36*
X135510Y-125905D02*
Y-127855D01*
X137460D01*
X137365Y-127380D01*
X136813Y-126552D01*
X135986Y-126000D01*
X135510Y-125905D01*
D02*
G37*
G36*
X134510D02*
X134035Y-126000D01*
X133208Y-126552D01*
X132655Y-127380D01*
X132561Y-127855D01*
X134510D01*
Y-125905D01*
D02*
G37*
G36*
X7949Y-126642D02*
X6000D01*
Y-128591D01*
X6475Y-128497D01*
X7302Y-127944D01*
X7855Y-127117D01*
X7949Y-126642D01*
D02*
G37*
G36*
X5000D02*
X3050D01*
X3145Y-127117D01*
X3698Y-127944D01*
X4524Y-128497D01*
X5000Y-128591D01*
Y-126642D01*
D02*
G37*
G36*
X190647Y-128855D02*
X188698D01*
Y-130805D01*
X189173Y-130710D01*
X190000Y-130157D01*
X190552Y-129330D01*
X190647Y-128855D01*
D02*
G37*
G36*
X137460D02*
X135510D01*
Y-130805D01*
X135986Y-130710D01*
X136813Y-130157D01*
X137365Y-129330D01*
X137460Y-128855D01*
D02*
G37*
G36*
X134510D02*
X132561D01*
X132655Y-129330D01*
X133208Y-130157D01*
X134035Y-130710D01*
X134510Y-130805D01*
Y-128855D01*
D02*
G37*
G36*
X69772Y-126228D02*
X62228D01*
Y-133772D01*
X69772D01*
Y-126228D01*
D02*
G37*
G36*
X160500Y-137550D02*
Y-139500D01*
X162450D01*
X162355Y-139024D01*
X161802Y-138198D01*
X160976Y-137645D01*
X160500Y-137550D01*
D02*
G37*
G36*
X159500D02*
X159025Y-137645D01*
X158198Y-138198D01*
X157645Y-139024D01*
X157551Y-139500D01*
X159500D01*
Y-137550D01*
D02*
G37*
G36*
X137000Y-140086D02*
X136211Y-140190D01*
X135204Y-140607D01*
X135229Y-140621D01*
X135560Y-140759D01*
X135907Y-140872D01*
X136270Y-140959D01*
X136650Y-141020D01*
X137000Y-141050D01*
Y-140086D01*
D02*
G37*
G36*
X62500Y-139550D02*
Y-141500D01*
X64450D01*
X64355Y-141024D01*
X63802Y-140198D01*
X62976Y-139645D01*
X62500Y-139550D01*
D02*
G37*
G36*
X46435D02*
X45960Y-139645D01*
X45133Y-140198D01*
X44580Y-141024D01*
X44486Y-141500D01*
X46435D01*
Y-139550D01*
D02*
G37*
G36*
X159500Y-140500D02*
X157551D01*
X157645Y-140975D01*
X158198Y-141802D01*
X159025Y-142355D01*
X159500Y-142449D01*
Y-140500D01*
D02*
G37*
G36*
X177500Y-140086D02*
Y-144500D01*
X181914D01*
X181810Y-143711D01*
X181313Y-142510D01*
X180521Y-141479D01*
X179490Y-140688D01*
X178289Y-140190D01*
X177500Y-140086D01*
D02*
G37*
G36*
X138000D02*
Y-144500D01*
X142414D01*
X142310Y-143711D01*
X141813Y-142510D01*
X141021Y-141479D01*
X139990Y-140688D01*
X138789Y-140190D01*
X138000Y-140086D01*
D02*
G37*
%LPD*%
G36*
X129503Y-20166D02*
X129517Y-20312D01*
X129541Y-20453D01*
X129575Y-20587D01*
X129619Y-20717D01*
X129673Y-20841D01*
X129737Y-20960D01*
X129811Y-21073D01*
X129895Y-21181D01*
X129990Y-21283D01*
X129283Y-21990D01*
X129181Y-21895D01*
X129073Y-21811D01*
X128960Y-21737D01*
X128841Y-21673D01*
X128717Y-21619D01*
X128587Y-21575D01*
X128453Y-21541D01*
X128312Y-21517D01*
X128166Y-21503D01*
X128015Y-21500D01*
X129500Y-20015D01*
X129503Y-20166D01*
D02*
G37*
G36*
X199662Y-23678D02*
X199594Y-23558D01*
X199517Y-23451D01*
X199432Y-23356D01*
X199339Y-23274D01*
X199237Y-23205D01*
X199127Y-23148D01*
X199008Y-23104D01*
X198881Y-23073D01*
X198745Y-23054D01*
X198601Y-23047D01*
X198942Y-22047D01*
X199073Y-22043D01*
X199205Y-22032D01*
X199339Y-22014D01*
X199473Y-21988D01*
X199744Y-21914D01*
X199880Y-21865D01*
X200156Y-21746D01*
X200296Y-21676D01*
X199662Y-23678D01*
D02*
G37*
G36*
X20845Y-15081D02*
X20752Y-15193D01*
X20670Y-15310D01*
X20598Y-15429D01*
X20538Y-15552D01*
X20488Y-15677D01*
X20449Y-15807D01*
X20422Y-15939D01*
X20405Y-16075D01*
X20400Y-16214D01*
X19400D01*
X19395Y-16075D01*
X19378Y-15939D01*
X19351Y-15807D01*
X19312Y-15677D01*
X19263Y-15552D01*
X19202Y-15429D01*
X19130Y-15310D01*
X19048Y-15193D01*
X18955Y-15081D01*
X18850Y-14971D01*
X20950D01*
X20845Y-15081D01*
D02*
G37*
G36*
X42552Y-25538D02*
X42903Y-25834D01*
X43062Y-25943D01*
X43209Y-26028D01*
X43345Y-26087D01*
X43469Y-26121D01*
X43582Y-26130D01*
X43683Y-26113D01*
X43773Y-26071D01*
X42071Y-27174D01*
X42140Y-27110D01*
X42178Y-27029D01*
X42184Y-26931D01*
X42159Y-26816D01*
X42102Y-26683D01*
X42015Y-26533D01*
X41896Y-26366D01*
X41746Y-26181D01*
X41352Y-25759D01*
X42359Y-25352D01*
X42552Y-25538D01*
D02*
G37*
G36*
X37956Y-29454D02*
X38007Y-30215D01*
X38056Y-30551D01*
X38120Y-30858D01*
X38198Y-31137D01*
X38292Y-31385D01*
X38401Y-31605D01*
X38525Y-31796D01*
X38664Y-31957D01*
X37957Y-32664D01*
X37796Y-32525D01*
X37605Y-32401D01*
X37385Y-32292D01*
X37137Y-32198D01*
X36858Y-32120D01*
X36551Y-32056D01*
X36215Y-32007D01*
X35454Y-31956D01*
X35030Y-31953D01*
X37953Y-29030D01*
X37956Y-29454D01*
D02*
G37*
G36*
X146891Y-39067D02*
X146589Y-38769D01*
X146015Y-38268D01*
X145742Y-38064D01*
X145480Y-37892D01*
X145228Y-37751D01*
X144985Y-37641D01*
X144753Y-37563D01*
X144531Y-37516D01*
X144318Y-37500D01*
Y-36500D01*
X144531Y-36484D01*
X144753Y-36437D01*
X144985Y-36359D01*
X145228Y-36249D01*
X145480Y-36108D01*
X145742Y-35936D01*
X146015Y-35732D01*
X146589Y-35231D01*
X146891Y-34933D01*
Y-39067D01*
D02*
G37*
G36*
X172929Y-43050D02*
X172819Y-42946D01*
X172706Y-42852D01*
X172590Y-42770D01*
X172471Y-42698D01*
X172348Y-42638D01*
X172222Y-42588D01*
X172093Y-42549D01*
X171961Y-42522D01*
X171825Y-42505D01*
X171686Y-42500D01*
Y-41500D01*
X171825Y-41495D01*
X171961Y-41478D01*
X172093Y-41451D01*
X172222Y-41412D01*
X172348Y-41363D01*
X172471Y-41302D01*
X172590Y-41230D01*
X172706Y-41148D01*
X172819Y-41054D01*
X172929Y-40950D01*
Y-43050D01*
D02*
G37*
G36*
X82615Y-40141D02*
X83130Y-40678D01*
X83381Y-40896D01*
X83627Y-41080D01*
X83869Y-41232D01*
X84107Y-41349D01*
X84340Y-41433D01*
X84570Y-41483D01*
X84794Y-41500D01*
X84687Y-42500D01*
X84486Y-42515D01*
X84268Y-42560D01*
X84033Y-42635D01*
X83781Y-42740D01*
X83512Y-42875D01*
X83226Y-43039D01*
X82602Y-43459D01*
X82265Y-43714D01*
X81910Y-43998D01*
X82351Y-39822D01*
X82615Y-40141D01*
D02*
G37*
G36*
X124892Y-50046D02*
X124809Y-50173D01*
X124737Y-50300D01*
X124674Y-50428D01*
X124621Y-50558D01*
X124577Y-50689D01*
X124543Y-50822D01*
X124519Y-50955D01*
X124505Y-51090D01*
X124500Y-51227D01*
X123500Y-51370D01*
X123494Y-51228D01*
X123476Y-51092D01*
X123446Y-50962D01*
X123404Y-50836D01*
X123351Y-50717D01*
X123285Y-50603D01*
X123207Y-50494D01*
X123117Y-50391D01*
X123016Y-50294D01*
X122902Y-50202D01*
X124983Y-49922D01*
X124892Y-50046D01*
D02*
G37*
G36*
X119985Y-74500D02*
X119834Y-74503D01*
X119688Y-74517D01*
X119547Y-74541D01*
X119413Y-74575D01*
X119283Y-74619D01*
X119159Y-74673D01*
X119040Y-74737D01*
X118927Y-74811D01*
X118819Y-74896D01*
X118717Y-74990D01*
X118010Y-74283D01*
X118105Y-74181D01*
X118189Y-74073D01*
X118263Y-73960D01*
X118327Y-73841D01*
X118381Y-73717D01*
X118425Y-73588D01*
X118459Y-73453D01*
X118483Y-73312D01*
X118497Y-73166D01*
X118500Y-73015D01*
X119985Y-74500D01*
D02*
G37*
G36*
X80758Y-98095D02*
X80788Y-98180D01*
X80839Y-98255D01*
X80910Y-98320D01*
X81001Y-98375D01*
X81112Y-98420D01*
X81243Y-98455D01*
X81395Y-98480D01*
X81567Y-98495D01*
X81760Y-98500D01*
Y-99500D01*
X81567Y-99505D01*
X81395Y-99520D01*
X81243Y-99545D01*
X81112Y-99580D01*
X81001Y-99625D01*
X80910Y-99680D01*
X80839Y-99745D01*
X80788Y-99820D01*
X80758Y-99905D01*
X80748Y-100000D01*
Y-98000D01*
X80758Y-98095D01*
D02*
G37*
G36*
X91798Y-101874D02*
X91620Y-102088D01*
X91461Y-102354D01*
X91323Y-102672D01*
X91203Y-103042D01*
X91103Y-103464D01*
X91023Y-103938D01*
X90962Y-104464D01*
X90898Y-105674D01*
X90895Y-106357D01*
X86608Y-102069D01*
X87291Y-102067D01*
X89027Y-101942D01*
X89501Y-101862D01*
X89923Y-101762D01*
X90293Y-101642D01*
X90611Y-101503D01*
X90877Y-101345D01*
X91091Y-101167D01*
X91798Y-101874D01*
D02*
G37*
G36*
X64882Y-64018D02*
X64789Y-64131D01*
X64706Y-64246D01*
X64635Y-64366D01*
X64574Y-64489D01*
X64525Y-64614D01*
X64486Y-64744D01*
X64459Y-64876D01*
X64442Y-65012D01*
X64437Y-65151D01*
X63437D01*
X63432Y-65012D01*
X63415Y-64876D01*
X63388Y-64744D01*
X63349Y-64614D01*
X63300Y-64489D01*
X63239Y-64366D01*
X63168Y-64246D01*
X63085Y-64131D01*
X62991Y-64018D01*
X62887Y-63908D01*
X64987D01*
X64882Y-64018D01*
D02*
G37*
G36*
X57345Y-65381D02*
X57252Y-65493D01*
X57170Y-65610D01*
X57098Y-65729D01*
X57038Y-65851D01*
X56988Y-65978D01*
X56950Y-66107D01*
X56922Y-66239D01*
X56906Y-66375D01*
X56900Y-66514D01*
X55900D01*
X55895Y-66375D01*
X55878Y-66239D01*
X55850Y-66107D01*
X55812Y-65978D01*
X55762Y-65851D01*
X55702Y-65729D01*
X55630Y-65610D01*
X55548Y-65493D01*
X55454Y-65381D01*
X55350Y-65271D01*
X57450D01*
X57345Y-65381D01*
D02*
G37*
G36*
X59667Y-81258D02*
X59206Y-81789D01*
X59018Y-82042D01*
X58860Y-82288D01*
X58730Y-82525D01*
X58630Y-82753D01*
X58558Y-82973D01*
X58514Y-83185D01*
X58500Y-83389D01*
X57500D01*
X57486Y-83185D01*
X57442Y-82973D01*
X57370Y-82753D01*
X57270Y-82525D01*
X57140Y-82288D01*
X56981Y-82042D01*
X56794Y-81789D01*
X56578Y-81528D01*
X56060Y-80979D01*
X59940D01*
X59667Y-81258D01*
D02*
G37*
G36*
X17748Y-114159D02*
X17549Y-114365D01*
X17235Y-114734D01*
X17121Y-114898D01*
X17035Y-115046D01*
X16977Y-115180D01*
X16948Y-115300D01*
X16946Y-115406D01*
X16973Y-115497D01*
X17029Y-115574D01*
X15627Y-114171D01*
X15703Y-114227D01*
X15794Y-114254D01*
X15900Y-114252D01*
X16020Y-114223D01*
X16154Y-114165D01*
X16303Y-114079D01*
X16465Y-113965D01*
X16643Y-113822D01*
X17041Y-113452D01*
X17748Y-114159D01*
D02*
G37*
%LPC*%
G36*
X98000Y-140086D02*
Y-141050D01*
X98350Y-141020D01*
X98730Y-140959D01*
X99093Y-140872D01*
X99440Y-140759D01*
X99771Y-140621D01*
X99796Y-140607D01*
X98789Y-140190D01*
X98000Y-140086D01*
D02*
G37*
%LPD*%
D11*
X7565Y-71400D02*
X13396Y-65569D01*
X39369D01*
X199400Y-49400D02*
X204935Y-54935D01*
Y-71400D02*
Y-54935D01*
X58000Y-88800D02*
Y-79000D01*
X50500Y-96300D02*
X58000Y-88800D01*
X50500Y-124602D02*
Y-96300D01*
Y-124602D02*
X55898Y-130000D01*
X14100Y-117100D02*
X30300Y-100900D01*
X41300D01*
X52100Y-90100D01*
Y-78800D01*
X112500Y-88100D02*
X188900D01*
X100600Y-100000D02*
X112500Y-88100D01*
X92965Y-100000D02*
X100600D01*
X86565Y-106400D02*
X92965Y-100000D01*
X99406Y-123047D02*
X180353D01*
X197200Y-106200D01*
X77500Y-145000D02*
X86000Y-136500D01*
Y-136000D01*
X96453Y-126000D02*
X99406Y-123047D01*
X90000Y-126000D02*
X96453D01*
X94038Y-96942D02*
X100300D01*
X94000Y-96981D02*
X94038Y-96942D01*
X82891Y-99000D02*
X87910Y-93981D01*
X95243D01*
X96204Y-94942D02*
X98058D01*
X95243Y-93981D02*
X96204Y-94942D01*
X35000Y-29000D02*
X43000Y-37000D01*
X149000D01*
X80000Y-41685D02*
X80315Y-42000D01*
X174000D01*
X128000Y-20000D02*
X130547Y-22547D01*
X200547D01*
X201000Y-23000D01*
X197200Y-106200D02*
Y-92637D01*
X124000Y-73243D02*
Y-49200D01*
X100300Y-96942D02*
X124000Y-73243D01*
X123800Y-49000D02*
X124000Y-49200D01*
X98058Y-94942D02*
X120000Y-73000D01*
X78000Y-99000D02*
X82891D01*
X56400Y-71672D02*
Y-64200D01*
X45000Y-83072D02*
X56400Y-71672D01*
X45000Y-84000D02*
Y-83072D01*
X52100Y-78800D02*
X63937Y-66963D01*
Y-62837D01*
X19900Y-17900D02*
Y-13900D01*
Y-17900D02*
X25000Y-23000D01*
X39300D01*
X45000Y-28700D01*
Y-29000D02*
Y-28700D01*
D41*
X100200Y-14000D02*
X106000D01*
X115000Y-5000D01*
X200200Y-133900D02*
Y-130100D01*
Y-133900D02*
X207000Y-140700D01*
Y-145000D02*
Y-140700D01*
X176250Y-134000D02*
X185725Y-124525D01*
X95600Y-134000D02*
X176250D01*
X130500Y-138000D02*
X137500Y-145000D01*
X104500Y-138000D02*
X130500D01*
X97500Y-145000D02*
X104500Y-138000D01*
X93600Y-132000D02*
X95600Y-134000D01*
X74000Y-138000D02*
X77500D01*
X22000D02*
X28000D01*
X66000Y-146000D02*
X74000Y-138000D01*
X36000Y-146000D02*
X66000D01*
X28000Y-138000D02*
X36000Y-146000D01*
X77500Y-138000D02*
X83500Y-132000D01*
X15000Y-145000D02*
X22000Y-138000D01*
X83500Y-132000D02*
X93600D01*
D42*
X165565Y-71400D02*
D03*
X185250D02*
D03*
X204935D02*
D03*
X125935Y-106400D02*
D03*
X106250D02*
D03*
X86565D02*
D03*
X7565Y-71400D02*
D03*
X27250D02*
D03*
X46935D02*
D03*
D43*
X58000Y-99000D02*
D03*
X68000D02*
D03*
X78000D02*
D03*
X55898Y-130000D02*
D03*
X66000D02*
D03*
X76000D02*
D03*
D44*
X58000Y-79000D02*
D03*
X68000D02*
D03*
X78000D02*
D03*
X55898Y-110000D02*
D03*
X66000D02*
D03*
X76000D02*
D03*
D45*
X111250Y-127500D02*
D03*
X101250Y-127500D02*
D03*
X44100Y-87100D02*
D03*
X34100D02*
D03*
X24100D02*
D03*
X14100D02*
D03*
X44100Y-117100D02*
D03*
X34100D02*
D03*
X24100D02*
D03*
X179000Y-47000D02*
D03*
Y-37000D02*
D03*
Y-27000D02*
D03*
Y-17000D02*
D03*
X149000Y-47000D02*
D03*
Y-37000D02*
D03*
Y-27000D02*
D03*
X15000Y-59000D02*
D03*
X25000D02*
D03*
X35000D02*
D03*
X45000D02*
D03*
X15000Y-29000D02*
D03*
X25000D02*
D03*
X35000D02*
D03*
D46*
X25000Y-145000D02*
D03*
X15000D02*
D03*
X87500D02*
D03*
X97500D02*
D03*
X107500D02*
D03*
X117500D02*
D03*
X127500D02*
D03*
X137500D02*
D03*
X177000D02*
D03*
X207000D02*
D03*
X105000Y-5000D02*
D03*
X95000D02*
D03*
D47*
X5000Y-145000D02*
D03*
X77500D02*
D03*
X167000D02*
D03*
X197000D02*
D03*
X115000Y-5000D02*
D03*
D48*
X80000Y-41685D02*
D03*
Y-22000D02*
D03*
X107500Y-57315D02*
D03*
Y-77000D02*
D03*
X197200Y-92637D02*
D03*
Y-84763D02*
D03*
D49*
X14100Y-117100D02*
D03*
X45000Y-29000D02*
D03*
D50*
X149000Y-17000D02*
D03*
D51*
X39369Y-65569D02*
D03*
X199400Y-49400D02*
D03*
X188900Y-88100D02*
D03*
X100200Y-14000D02*
D03*
X69200Y-15600D02*
D03*
X64000D02*
D03*
X200200Y-130100D02*
D03*
X185725Y-124525D02*
D03*
X113515Y-24977D02*
D03*
X56063Y-25547D02*
D03*
X5500Y-126142D02*
D03*
X6302Y-6802D02*
D03*
X195668Y-9561D02*
D03*
X164036Y-35000D02*
D03*
X188198Y-128355D02*
D03*
X135010D02*
D03*
X114895Y-115032D02*
D03*
X102771D02*
D03*
X180000Y-60000D02*
D03*
Y-100000D02*
D03*
X190000Y-120000D02*
D03*
X160000Y-60000D02*
D03*
X170000Y-120000D02*
D03*
X160000Y-140000D02*
D03*
X140000Y-60000D02*
D03*
X150000Y-120000D02*
D03*
X120000Y-60000D02*
D03*
Y-100000D02*
D03*
X100000Y-20000D02*
D03*
Y-60000D02*
D03*
X110000Y-120000D02*
D03*
X80000Y-60000D02*
D03*
X70000Y-40000D02*
D03*
X30000D02*
D03*
Y-80000D02*
D03*
X20000Y-100000D02*
D03*
X116000Y-138000D02*
D03*
X122000D02*
D03*
X128000D02*
D03*
X86000Y-136000D02*
D03*
X46935Y-142000D02*
D03*
X52000D02*
D03*
X57000D02*
D03*
X62000D02*
D03*
X94000Y-96981D02*
D03*
X90000Y-126000D02*
D03*
X174000Y-42000D02*
D03*
X128000Y-20000D02*
D03*
X201000Y-23000D02*
D03*
X120000Y-73000D02*
D03*
X56400Y-64200D02*
D03*
X63937Y-62837D02*
D03*
X123800Y-49000D02*
D03*
X19900Y-13900D02*
D03*
M02*
