G04*
G04 #@! TF.GenerationSoftware,Altium Limited,Altium Designer,19.0.10 (269)*
G04*
G04 Layer_Color=16711935*
%FSLAX25Y25*%
%MOIN*%
G70*
G01*
G75*
%ADD15C,0.00394*%
D15*
X14631Y-111549D02*
G03*
X14631Y-111549I-1969J0D01*
G01*
X156520Y-15563D02*
G03*
X156520Y-15563I-1969J0D01*
G01*
X48406Y-34551D02*
G03*
X48406Y-34551I-1969J0D01*
G01*
X79730Y-14246D02*
X83470D01*
X79730Y-7553D02*
X83470D01*
X79730Y-14246D02*
Y-7553D01*
X83470Y-14246D02*
Y-7553D01*
X67641Y-12732D02*
Y-4268D01*
X72759Y-12732D02*
Y-4268D01*
X67641D02*
X72759D01*
X67641Y-12732D02*
X72759D01*
X193798Y-123653D02*
X197538D01*
X193798Y-130347D02*
X197538D01*
Y-123653D01*
X193798Y-130347D02*
Y-123653D01*
X200703Y-128559D02*
Y-123441D01*
X209167Y-128559D02*
Y-123441D01*
X200703Y-128559D02*
X209167D01*
X200703Y-123441D02*
X209167D01*
X18055Y-81770D02*
Y-78030D01*
X24945Y-81770D02*
Y-78030D01*
X18055D02*
X24945D01*
X18055Y-81770D02*
X24945D01*
X49080Y-115092D02*
Y-89108D01*
X9120Y-115092D02*
Y-89108D01*
X49080D01*
X9120Y-115092D02*
X49080D01*
X151008Y-51980D02*
X176992D01*
X151008Y-12020D02*
X176992D01*
Y-51980D02*
Y-12020D01*
X151008Y-51980D02*
Y-12020D01*
X10020Y-56992D02*
Y-31008D01*
X49980Y-56992D02*
Y-31008D01*
X10020Y-56992D02*
X49980D01*
X10020Y-31008D02*
X49980D01*
X176870Y-88445D02*
Y-81555D01*
X173130Y-88445D02*
Y-81555D01*
X176870D01*
X173130Y-88445D02*
X176870D01*
X150630Y-88208D02*
Y-81318D01*
X154370Y-88208D02*
Y-81318D01*
X150630Y-88208D02*
X154370D01*
X150630Y-81318D02*
X154370D01*
M02*
