G04*
G04 #@! TF.GenerationSoftware,Altium Limited,Altium Designer,19.0.10 (269)*
G04*
G04 Layer_Color=255*
%FSLAX25Y25*%
%MOIN*%
G70*
G01*
G75*
%ADD16R,0.03740X0.03347*%
%ADD17R,0.03150X0.01772*%
%ADD18R,0.01772X0.03150*%
%ADD19R,0.03543X0.03937*%
%ADD20R,0.04724X0.04724*%
%ADD21R,0.03347X0.03347*%
%ADD22R,0.03347X0.03347*%
%ADD23R,0.03937X0.03543*%
%ADD42C,0.08661*%
%ADD43R,0.05543X0.05543*%
%ADD44C,0.05543*%
%ADD45C,0.05906*%
%ADD46C,0.07874*%
G04:AMPARAMS|DCode=47|XSize=78.74mil|YSize=78.74mil|CornerRadius=19.68mil|HoleSize=0mil|Usage=FLASHONLY|Rotation=0.000|XOffset=0mil|YOffset=0mil|HoleType=Round|Shape=RoundedRectangle|*
%AMROUNDEDRECTD47*
21,1,0.07874,0.03937,0,0,0.0*
21,1,0.03937,0.07874,0,0,0.0*
1,1,0.03937,0.01968,-0.01968*
1,1,0.03937,-0.01968,-0.01968*
1,1,0.03937,-0.01968,0.01968*
1,1,0.03937,0.01968,0.01968*
%
%ADD47ROUNDEDRECTD47*%
%ADD48C,0.06000*%
%ADD49R,0.05906X0.05906*%
%ADD50R,0.05906X0.05906*%
D16*
X81600Y-13361D02*
D03*
Y-8439D02*
D03*
X195668Y-124539D02*
D03*
Y-129461D02*
D03*
D17*
X66066Y-5941D02*
D03*
Y-11059D02*
D03*
X74334Y-8500D02*
D03*
D18*
X204935Y-130134D02*
D03*
X202376Y-121866D02*
D03*
X207494D02*
D03*
D19*
X18843Y-79900D02*
D03*
X24158D02*
D03*
D20*
X60000Y-45602D02*
D03*
X63937Y-58398D02*
D03*
X56063D02*
D03*
X16000Y-6602D02*
D03*
X19937Y-19398D02*
D03*
X12063D02*
D03*
D21*
X161000Y-81898D02*
D03*
Y-88000D02*
D03*
X168000Y-81949D02*
D03*
Y-88051D02*
D03*
X182000Y-88000D02*
D03*
Y-81898D02*
D03*
X22000Y-123949D02*
D03*
Y-130051D02*
D03*
X32800Y-130003D02*
D03*
Y-123900D02*
D03*
X43800D02*
D03*
Y-130003D02*
D03*
X4700Y-89400D02*
D03*
Y-95502D02*
D03*
X11000Y-123949D02*
D03*
Y-130051D02*
D03*
X4500Y-111749D02*
D03*
Y-117851D02*
D03*
X50000Y-20051D02*
D03*
Y-13949D02*
D03*
X34500Y-19949D02*
D03*
Y-13847D02*
D03*
X27000Y-20000D02*
D03*
Y-13898D02*
D03*
X42500Y-13847D02*
D03*
Y-19949D02*
D03*
X58000Y-20051D02*
D03*
Y-13949D02*
D03*
D22*
X194051Y-45602D02*
D03*
X187949D02*
D03*
Y-38000D02*
D03*
X194051D02*
D03*
X187949Y-16000D02*
D03*
X194051D02*
D03*
Y-30000D02*
D03*
X187949D02*
D03*
X194051Y-23000D02*
D03*
X187949D02*
D03*
Y-53902D02*
D03*
X194051D02*
D03*
X187949Y-61000D02*
D03*
X194051D02*
D03*
X132949Y-15600D02*
D03*
X139051D02*
D03*
X139000Y-24000D02*
D03*
X132898D02*
D03*
X139000Y-33000D02*
D03*
X132898D02*
D03*
Y-41000D02*
D03*
X139000D02*
D03*
X132898Y-49000D02*
D03*
X139000D02*
D03*
X128051Y-127500D02*
D03*
X121949D02*
D03*
D23*
X175000Y-82342D02*
D03*
Y-87657D02*
D03*
X152500Y-87420D02*
D03*
Y-82105D02*
D03*
D42*
X165565Y-71400D02*
D03*
X185250D02*
D03*
X204935D02*
D03*
X125935Y-106400D02*
D03*
X106250D02*
D03*
X86565D02*
D03*
X7565Y-71400D02*
D03*
X27250D02*
D03*
X46935D02*
D03*
D43*
X58000Y-99000D02*
D03*
X68000D02*
D03*
X78000D02*
D03*
X55898Y-130000D02*
D03*
X66000D02*
D03*
X76000D02*
D03*
D44*
X58000Y-79000D02*
D03*
X68000D02*
D03*
X78000D02*
D03*
X55898Y-110000D02*
D03*
X66000D02*
D03*
X76000D02*
D03*
D45*
X111250Y-127500D02*
D03*
X101250Y-127500D02*
D03*
X44100Y-87100D02*
D03*
X34100D02*
D03*
X24100D02*
D03*
X14100D02*
D03*
X44100Y-117100D02*
D03*
X34100D02*
D03*
X24100D02*
D03*
X179000Y-47000D02*
D03*
Y-37000D02*
D03*
Y-27000D02*
D03*
Y-17000D02*
D03*
X149000Y-47000D02*
D03*
Y-37000D02*
D03*
Y-27000D02*
D03*
X15000Y-59000D02*
D03*
X25000D02*
D03*
X35000D02*
D03*
X45000D02*
D03*
X15000Y-29000D02*
D03*
X25000D02*
D03*
X35000D02*
D03*
D46*
X25000Y-145000D02*
D03*
X15000D02*
D03*
X87500D02*
D03*
X97500D02*
D03*
X107500D02*
D03*
X117500D02*
D03*
X127500D02*
D03*
X137500D02*
D03*
X177000D02*
D03*
X207000D02*
D03*
X105000Y-5000D02*
D03*
X95000D02*
D03*
D47*
X5000Y-145000D02*
D03*
X77500D02*
D03*
X167000D02*
D03*
X197000D02*
D03*
X115000Y-5000D02*
D03*
D48*
X80000Y-41685D02*
D03*
Y-22000D02*
D03*
X107500Y-57315D02*
D03*
Y-77000D02*
D03*
X197200Y-92637D02*
D03*
Y-84763D02*
D03*
D49*
X14100Y-117100D02*
D03*
X45000Y-29000D02*
D03*
D50*
X149000Y-17000D02*
D03*
M02*
